<mxfile host="app.diagrams.net" modified="2023-04-04T12:57:30.116Z" agent="Mozilla/5.0 (Windows NT 10.0; Win64; x64) AppleWebKit/537.36 (KHTML, like Gecko) Chrome/111.0.0.0 Safari/537.36" etag="fzzGKSqFrhLf-HYvnGKM" version="21.1.4" type="device">
  <diagram id="C5RBs43oDa-KdzZeNtuy" name="Page-1">
    <mxGraphModel dx="2620" dy="4452" grid="1" gridSize="10" guides="1" tooltips="1" connect="1" arrows="1" fold="1" page="1" pageScale="1" pageWidth="827" pageHeight="1169" math="0" shadow="0">
      <root>
        <mxCell id="WIyWlLk6GJQsqaUBKTNV-0" />
        <mxCell id="WIyWlLk6GJQsqaUBKTNV-1" parent="WIyWlLk6GJQsqaUBKTNV-0" />
        <mxCell id="q5r-BAAe32Tt8XjZLQv0-71" style="edgeStyle=orthogonalEdgeStyle;orthogonalLoop=1;jettySize=auto;html=1;entryX=0.5;entryY=0;entryDx=0;entryDy=0;labelBackgroundColor=none;fontColor=default;rounded=0;strokeColor=#A8201A;fontStyle=1" parent="WIyWlLk6GJQsqaUBKTNV-1" source="q5r-BAAe32Tt8XjZLQv0-2" target="q5r-BAAe32Tt8XjZLQv0-32" edge="1">
          <mxGeometry relative="1" as="geometry" />
        </mxCell>
        <mxCell id="q5r-BAAe32Tt8XjZLQv0-2" value="CLI" style="swimlane;fontStyle=1;align=center;verticalAlign=top;childLayout=stackLayout;horizontal=1;startSize=50;horizontalStack=0;resizeParent=1;resizeLast=0;collapsible=1;marginBottom=0;rounded=0;shadow=0;strokeWidth=1;labelBackgroundColor=none;fillColor=#FAE5C7;strokeColor=#0F8B8D;fontColor=#143642;" parent="WIyWlLk6GJQsqaUBKTNV-1" vertex="1">
          <mxGeometry x="424.04999999999995" y="-2440" width="180" height="60" as="geometry">
            <mxRectangle x="130" y="380" width="160" height="26" as="alternateBounds" />
          </mxGeometry>
        </mxCell>
        <mxCell id="q5r-BAAe32Tt8XjZLQv0-5" value="Hamaaian 2 : Site" style="swimlane;fontStyle=1;align=center;verticalAlign=top;childLayout=stackLayout;horizontal=1;startSize=26;horizontalStack=0;resizeParent=1;resizeLast=0;collapsible=1;marginBottom=0;rounded=0;shadow=0;strokeWidth=1;labelBackgroundColor=none;fillColor=#FAE5C7;strokeColor=#0F8B8D;fontColor=#143642;" parent="WIyWlLk6GJQsqaUBKTNV-1" vertex="1">
          <mxGeometry x="50" y="-1990" width="240" height="160" as="geometry">
            <mxRectangle x="130" y="380" width="160" height="26" as="alternateBounds" />
          </mxGeometry>
        </mxCell>
        <mxCell id="q5r-BAAe32Tt8XjZLQv0-6" value="- Address: Hamaaian 2, Givatayim" style="text;align=left;verticalAlign=top;spacingLeft=4;spacingRight=4;overflow=hidden;rotatable=0;points=[[0,0.5],[1,0.5]];portConstraint=eastwest;labelBackgroundColor=none;rounded=0;fontStyle=1;fontColor=#143642;" parent="q5r-BAAe32Tt8XjZLQv0-5" vertex="1">
          <mxGeometry y="26" width="240" height="26" as="geometry" />
        </mxCell>
        <mxCell id="q5r-BAAe32Tt8XjZLQv0-7" value="- Contact: Omer" style="text;align=left;verticalAlign=top;spacingLeft=4;spacingRight=4;overflow=hidden;rotatable=0;points=[[0,0.5],[1,0.5]];portConstraint=eastwest;labelBackgroundColor=none;rounded=0;fontStyle=1;fontColor=#143642;" parent="q5r-BAAe32Tt8XjZLQv0-5" vertex="1">
          <mxGeometry y="52" width="240" height="26" as="geometry" />
        </mxCell>
        <mxCell id="q5r-BAAe32Tt8XjZLQv0-8" value="- ContactPhoneNumber: 0545772650" style="text;align=left;verticalAlign=top;spacingLeft=4;spacingRight=4;overflow=hidden;rotatable=0;points=[[0,0.5],[1,0.5]];portConstraint=eastwest;labelBackgroundColor=none;rounded=0;fontStyle=1;fontColor=#143642;" parent="q5r-BAAe32Tt8XjZLQv0-5" vertex="1">
          <mxGeometry y="78" width="240" height="30" as="geometry" />
        </mxCell>
        <mxCell id="q5r-BAAe32Tt8XjZLQv0-9" value="- Area: Central" style="text;align=left;verticalAlign=top;spacingLeft=4;spacingRight=4;overflow=hidden;rotatable=0;points=[[0,0.5],[1,0.5]];portConstraint=eastwest;labelBackgroundColor=none;rounded=0;fontStyle=1;fontColor=#143642;" parent="q5r-BAAe32Tt8XjZLQv0-5" vertex="1">
          <mxGeometry y="108" width="240" height="30" as="geometry" />
        </mxCell>
        <mxCell id="q5r-BAAe32Tt8XjZLQv0-10" value="Avraham avinu 13 :Â  Site" style="swimlane;fontStyle=1;align=center;verticalAlign=top;childLayout=stackLayout;horizontal=1;startSize=26;horizontalStack=0;resizeParent=1;resizeLast=0;collapsible=1;marginBottom=0;rounded=0;shadow=0;strokeWidth=1;labelBackgroundColor=none;fillColor=#FAE5C7;strokeColor=#0F8B8D;fontColor=#143642;" parent="WIyWlLk6GJQsqaUBKTNV-1" vertex="1">
          <mxGeometry x="50" y="-1185" width="250" height="160" as="geometry">
            <mxRectangle x="130" y="380" width="160" height="26" as="alternateBounds" />
          </mxGeometry>
        </mxCell>
        <mxCell id="q5r-BAAe32Tt8XjZLQv0-11" value="- Address: Avraham avinu 13, Beer Sheva" style="text;align=left;verticalAlign=top;spacingLeft=4;spacingRight=4;overflow=hidden;rotatable=0;points=[[0,0.5],[1,0.5]];portConstraint=eastwest;labelBackgroundColor=none;rounded=0;fontStyle=1;fontColor=#143642;" parent="q5r-BAAe32Tt8XjZLQv0-10" vertex="1">
          <mxGeometry y="26" width="250" height="26" as="geometry" />
        </mxCell>
        <mxCell id="q5r-BAAe32Tt8XjZLQv0-12" value="- Contact: Noga" style="text;align=left;verticalAlign=top;spacingLeft=4;spacingRight=4;overflow=hidden;rotatable=0;points=[[0,0.5],[1,0.5]];portConstraint=eastwest;labelBackgroundColor=none;rounded=0;fontStyle=1;fontColor=#143642;" parent="q5r-BAAe32Tt8XjZLQv0-10" vertex="1">
          <mxGeometry y="52" width="250" height="26" as="geometry" />
        </mxCell>
        <mxCell id="q5r-BAAe32Tt8XjZLQv0-13" value="-ContactPhoneNumber: 0525121212" style="text;align=left;verticalAlign=top;spacingLeft=4;spacingRight=4;overflow=hidden;rotatable=0;points=[[0,0.5],[1,0.5]];portConstraint=eastwest;labelBackgroundColor=none;rounded=0;fontStyle=1;fontSize=12;fontColor=#143642;" parent="q5r-BAAe32Tt8XjZLQv0-10" vertex="1">
          <mxGeometry y="78" width="250" height="30" as="geometry" />
        </mxCell>
        <mxCell id="q5r-BAAe32Tt8XjZLQv0-14" value="- Area: South" style="text;align=left;verticalAlign=top;spacingLeft=4;spacingRight=4;overflow=hidden;rotatable=0;points=[[0,0.5],[1,0.5]];portConstraint=eastwest;labelBackgroundColor=none;rounded=0;fontStyle=1;fontColor=#143642;" parent="q5r-BAAe32Tt8XjZLQv0-10" vertex="1">
          <mxGeometry y="108" width="250" height="30" as="geometry" />
        </mxCell>
        <mxCell id="q5r-BAAe32Tt8XjZLQv0-20" value="98373214: FreezerTruck" style="swimlane;fontStyle=1;align=center;verticalAlign=top;childLayout=stackLayout;horizontal=1;startSize=26;horizontalStack=0;resizeParent=1;resizeLast=0;collapsible=1;marginBottom=0;rounded=0;shadow=0;strokeWidth=1;labelBackgroundColor=none;fontSize=12;fillColor=#FAE5C7;strokeColor=#0F8B8D;fontColor=#143642;" parent="WIyWlLk6GJQsqaUBKTNV-1" vertex="1">
          <mxGeometry x="-303.75" y="-1400" width="220" height="112" as="geometry">
            <mxRectangle y="515" width="160" height="26" as="alternateBounds" />
          </mxGeometry>
        </mxCell>
        <mxCell id="q5r-BAAe32Tt8XjZLQv0-21" value="- truckSerialNumber: 98373214" style="text;align=left;verticalAlign=top;spacingLeft=4;spacingRight=4;overflow=hidden;rotatable=0;points=[[0,0.5],[1,0.5]];portConstraint=eastwest;labelBackgroundColor=none;rounded=0;fontStyle=1;fontSize=12;fontColor=#143642;" parent="q5r-BAAe32Tt8XjZLQv0-20" vertex="1">
          <mxGeometry y="26" width="220" height="26" as="geometry" />
        </mxCell>
        <mxCell id="q5r-BAAe32Tt8XjZLQv0-22" value="- capacity: 500" style="text;align=left;verticalAlign=top;spacingLeft=4;spacingRight=4;overflow=hidden;rotatable=0;points=[[0,0.5],[1,0.5]];portConstraint=eastwest;labelBackgroundColor=none;rounded=0;fontStyle=1;fontSize=12;fontColor=#143642;" parent="q5r-BAAe32Tt8XjZLQv0-20" vertex="1">
          <mxGeometry y="52" width="220" height="30" as="geometry" />
        </mxCell>
        <mxCell id="q5r-BAAe32Tt8XjZLQv0-23" value="- inUse: true" style="text;align=left;verticalAlign=top;spacingLeft=4;spacingRight=4;overflow=hidden;rotatable=0;points=[[0,0.5],[1,0.5]];portConstraint=eastwest;labelBackgroundColor=none;rounded=0;fontStyle=1;fontSize=12;fontColor=#143642;" parent="q5r-BAAe32Tt8XjZLQv0-20" vertex="1">
          <mxGeometry y="82" width="220" height="30" as="geometry" />
        </mxCell>
        <mxCell id="q5r-BAAe32Tt8XjZLQv0-32" value="Bruno: ShipmentManagerFacade" style="swimlane;fontStyle=1;align=center;verticalAlign=top;childLayout=stackLayout;horizontal=1;startSize=50;horizontalStack=0;resizeParent=1;resizeLast=0;collapsible=1;marginBottom=0;rounded=0;shadow=0;strokeWidth=1;labelBackgroundColor=none;fontSize=13;fillColor=#FAE5C7;strokeColor=#0F8B8D;fontColor=#143642;" parent="WIyWlLk6GJQsqaUBKTNV-1" vertex="1">
          <mxGeometry x="389.05" y="-2340" width="250" height="130" as="geometry">
            <mxRectangle x="130" y="380" width="160" height="26" as="alternateBounds" />
          </mxGeometry>
        </mxCell>
        <mxCell id="q5r-BAAe32Tt8XjZLQv0-33" value="- ShipmentSerializer : 11" style="text;labelBackgroundColor=none;rounded=0;fontStyle=5;fontSize=13;horizontal=1;fontColor=#143642;" parent="q5r-BAAe32Tt8XjZLQv0-32" vertex="1">
          <mxGeometry y="50" width="250" height="40" as="geometry" />
        </mxCell>
        <mxCell id="q5r-BAAe32Tt8XjZLQv0-34" value="- DocumentSerializer: 17" style="text;labelBackgroundColor=none;rounded=0;fontStyle=5;fontSize=13;horizontal=1;fontColor=#143642;" parent="q5r-BAAe32Tt8XjZLQv0-32" vertex="1">
          <mxGeometry y="90" width="250" height="40" as="geometry" />
        </mxCell>
        <mxCell id="q5r-BAAe32Tt8XjZLQv0-60" value="16: ShippingDocument" style="swimlane;fontStyle=1;align=center;verticalAlign=top;childLayout=stackLayout;horizontal=1;startSize=26;horizontalStack=0;resizeParent=1;resizeLast=0;collapsible=1;marginBottom=0;rounded=0;shadow=0;strokeWidth=1;labelBackgroundColor=none;fontSize=13;fillColor=#FAE5C7;strokeColor=#0F8B8D;fontColor=#143642;" parent="WIyWlLk6GJQsqaUBKTNV-1" vertex="1">
          <mxGeometry x="420" y="-1620" width="160" height="130" as="geometry">
            <mxRectangle x="130" y="380" width="160" height="26" as="alternateBounds" />
          </mxGeometry>
        </mxCell>
        <mxCell id="q5r-BAAe32Tt8XjZLQv0-61" value="- serialNumber: 16" style="text;align=left;verticalAlign=top;spacingLeft=4;spacingRight=4;overflow=hidden;rotatable=0;points=[[0,0.5],[1,0.5]];portConstraint=eastwest;labelBackgroundColor=none;rounded=0;fontStyle=1;fontSize=13;horizontal=1;fontColor=#143642;" parent="q5r-BAAe32Tt8XjZLQv0-60" vertex="1">
          <mxGeometry y="26" width="160" height="26" as="geometry" />
        </mxCell>
        <mxCell id="q5r-BAAe32Tt8XjZLQv0-62" value="- date : -" style="text;align=left;verticalAlign=top;spacingLeft=4;spacingRight=4;overflow=hidden;rotatable=0;points=[[0,0.5],[1,0.5]];portConstraint=eastwest;labelBackgroundColor=none;rounded=0;fontStyle=1;fontSize=13;horizontal=1;fontColor=#143642;" parent="q5r-BAAe32Tt8XjZLQv0-60" vertex="1">
          <mxGeometry y="52" width="160" height="26" as="geometry" />
        </mxCell>
        <mxCell id="q5r-BAAe32Tt8XjZLQv0-63" value="- departureHour : -" style="text;align=left;verticalAlign=top;spacingLeft=4;spacingRight=4;overflow=hidden;rotatable=0;points=[[0,0.5],[1,0.5]];portConstraint=eastwest;labelBackgroundColor=none;rounded=0;fontStyle=1;fontSize=13;horizontal=1;fontColor=#143642;" parent="q5r-BAAe32Tt8XjZLQv0-60" vertex="1">
          <mxGeometry y="78" width="160" height="26" as="geometry" />
        </mxCell>
        <mxCell id="q5r-BAAe32Tt8XjZLQv0-115" value="interacts with" style="edgeLabel;resizable=0;html=1;align=right;verticalAlign=bottom;labelBackgroundColor=none;rounded=0;fontColor=#143642;fontStyle=1" parent="WIyWlLk6GJQsqaUBKTNV-1" connectable="0" vertex="1">
          <mxGeometry x="589.0499998347111" y="-2340.000090908866" as="geometry" />
        </mxCell>
        <mxCell id="EdTaeyGL8FUxiMYROmDw-70" style="edgeStyle=orthogonalEdgeStyle;orthogonalLoop=1;jettySize=auto;html=1;exitX=0.5;exitY=1;exitDx=0;exitDy=0;labelBackgroundColor=none;fontColor=default;strokeColor=#A8201A;fontStyle=1" edge="1" parent="WIyWlLk6GJQsqaUBKTNV-1" source="EdTaeyGL8FUxiMYROmDw-0" target="EdTaeyGL8FUxiMYROmDw-41">
          <mxGeometry relative="1" as="geometry" />
        </mxCell>
        <mxCell id="EdTaeyGL8FUxiMYROmDw-72" style="edgeStyle=orthogonalEdgeStyle;orthogonalLoop=1;jettySize=auto;html=1;exitX=0.5;exitY=1;exitDx=0;exitDy=0;labelBackgroundColor=none;fontColor=default;strokeColor=#A8201A;fontStyle=1" edge="1" parent="WIyWlLk6GJQsqaUBKTNV-1" source="EdTaeyGL8FUxiMYROmDw-0">
          <mxGeometry relative="1" as="geometry">
            <mxPoint x="79.69999999999982" y="-780" as="targetPoint" />
          </mxGeometry>
        </mxCell>
        <mxCell id="EdTaeyGL8FUxiMYROmDw-0" value="ShippingOrder" style="swimlane;fontStyle=1;align=center;verticalAlign=top;childLayout=stackLayout;horizontal=1;startSize=26;horizontalStack=0;resizeParent=1;resizeLast=0;collapsible=1;marginBottom=0;rounded=0;shadow=0;strokeWidth=1;labelBackgroundColor=none;fontSize=13;fillColor=#FAE5C7;strokeColor=#0F8B8D;fontColor=#143642;" vertex="1" parent="WIyWlLk6GJQsqaUBKTNV-1">
          <mxGeometry x="-290" y="-930" width="192.5" height="65.75" as="geometry">
            <mxRectangle x="130" y="380" width="160" height="26" as="alternateBounds" />
          </mxGeometry>
        </mxCell>
        <mxCell id="EdTaeyGL8FUxiMYROmDw-73" style="edgeStyle=orthogonalEdgeStyle;orthogonalLoop=1;jettySize=auto;html=1;exitX=0.5;exitY=1;exitDx=0;exitDy=0;labelBackgroundColor=none;fontColor=default;strokeColor=#A8201A;fontStyle=1" edge="1" parent="WIyWlLk6GJQsqaUBKTNV-1" source="EdTaeyGL8FUxiMYROmDw-1" target="EdTaeyGL8FUxiMYROmDw-53">
          <mxGeometry relative="1" as="geometry">
            <Array as="points">
              <mxPoint x="-174" y="-1820" />
              <mxPoint x="-630" y="-1820" />
            </Array>
          </mxGeometry>
        </mxCell>
        <mxCell id="EdTaeyGL8FUxiMYROmDw-74" style="edgeStyle=orthogonalEdgeStyle;orthogonalLoop=1;jettySize=auto;html=1;exitX=0.5;exitY=1;exitDx=0;exitDy=0;entryX=0.5;entryY=0;entryDx=0;entryDy=0;labelBackgroundColor=none;fontColor=default;strokeColor=#A8201A;fontStyle=1" edge="1" parent="WIyWlLk6GJQsqaUBKTNV-1" source="EdTaeyGL8FUxiMYROmDw-1" target="EdTaeyGL8FUxiMYROmDw-47">
          <mxGeometry relative="1" as="geometry" />
        </mxCell>
        <mxCell id="EdTaeyGL8FUxiMYROmDw-75" style="edgeStyle=orthogonalEdgeStyle;orthogonalLoop=1;jettySize=auto;html=1;exitX=0.5;exitY=1;exitDx=0;exitDy=0;labelBackgroundColor=none;fontColor=default;strokeColor=#A8201A;fontStyle=1" edge="1" parent="WIyWlLk6GJQsqaUBKTNV-1" source="EdTaeyGL8FUxiMYROmDw-1">
          <mxGeometry relative="1" as="geometry">
            <mxPoint x="-19" y="-1755.5" as="targetPoint" />
          </mxGeometry>
        </mxCell>
        <mxCell id="EdTaeyGL8FUxiMYROmDw-86" style="edgeStyle=orthogonalEdgeStyle;orthogonalLoop=1;jettySize=auto;html=1;exitX=0.5;exitY=1;exitDx=0;exitDy=0;labelBackgroundColor=none;fontColor=default;strokeColor=#A8201A;fontStyle=1" edge="1" parent="WIyWlLk6GJQsqaUBKTNV-1" source="EdTaeyGL8FUxiMYROmDw-1" target="EdTaeyGL8FUxiMYROmDw-83">
          <mxGeometry relative="1" as="geometry" />
        </mxCell>
        <mxCell id="EdTaeyGL8FUxiMYROmDw-107" style="edgeStyle=orthogonalEdgeStyle;orthogonalLoop=1;jettySize=auto;html=1;exitX=1;exitY=0.5;exitDx=0;exitDy=0;entryX=0;entryY=0.5;entryDx=0;entryDy=0;labelBackgroundColor=none;fontColor=default;strokeColor=#A8201A;fontStyle=1" edge="1" parent="WIyWlLk6GJQsqaUBKTNV-1" source="EdTaeyGL8FUxiMYROmDw-1" target="EdTaeyGL8FUxiMYROmDw-21">
          <mxGeometry relative="1" as="geometry" />
        </mxCell>
        <mxCell id="EdTaeyGL8FUxiMYROmDw-108" style="edgeStyle=orthogonalEdgeStyle;orthogonalLoop=1;jettySize=auto;html=1;exitX=1;exitY=0.5;exitDx=0;exitDy=0;entryX=0;entryY=0.5;entryDx=0;entryDy=0;labelBackgroundColor=none;fontColor=default;strokeColor=#A8201A;fontStyle=1" edge="1" parent="WIyWlLk6GJQsqaUBKTNV-1" source="EdTaeyGL8FUxiMYROmDw-1" target="q5r-BAAe32Tt8XjZLQv0-8">
          <mxGeometry relative="1" as="geometry" />
        </mxCell>
        <mxCell id="EdTaeyGL8FUxiMYROmDw-1" value="ShippingOrder" style="swimlane;fontStyle=1;align=center;verticalAlign=top;childLayout=stackLayout;horizontal=1;startSize=26;horizontalStack=0;resizeParent=1;resizeLast=0;collapsible=1;marginBottom=0;rounded=0;shadow=0;strokeWidth=1;labelBackgroundColor=none;fontSize=13;fillColor=#FAE5C7;strokeColor=#0F8B8D;fontColor=#143642;" vertex="1" parent="WIyWlLk6GJQsqaUBKTNV-1">
          <mxGeometry x="-270" y="-1950" width="192.5" height="70" as="geometry">
            <mxRectangle x="130" y="380" width="160" height="26" as="alternateBounds" />
          </mxGeometry>
        </mxCell>
        <mxCell id="EdTaeyGL8FUxiMYROmDw-179" style="edgeStyle=orthogonalEdgeStyle;orthogonalLoop=1;jettySize=auto;html=1;exitX=0.5;exitY=0;exitDx=0;exitDy=0;entryX=1.018;entryY=0.172;entryDx=0;entryDy=0;entryPerimeter=0;labelBackgroundColor=none;fontColor=default;strokeColor=#A8201A;fontStyle=1" edge="1" parent="WIyWlLk6GJQsqaUBKTNV-1" source="EdTaeyGL8FUxiMYROmDw-2" target="EdTaeyGL8FUxiMYROmDw-13">
          <mxGeometry relative="1" as="geometry" />
        </mxCell>
        <mxCell id="EdTaeyGL8FUxiMYROmDw-181" style="edgeStyle=orthogonalEdgeStyle;orthogonalLoop=1;jettySize=auto;html=1;entryX=1;entryY=0.5;entryDx=0;entryDy=0;labelBackgroundColor=none;fontColor=default;strokeColor=#A8201A;fontStyle=1" edge="1" parent="WIyWlLk6GJQsqaUBKTNV-1" source="EdTaeyGL8FUxiMYROmDw-2" target="EdTaeyGL8FUxiMYROmDw-16">
          <mxGeometry relative="1" as="geometry" />
        </mxCell>
        <mxCell id="EdTaeyGL8FUxiMYROmDw-2" value="10: Shippment" style="swimlane;fontStyle=1;align=center;verticalAlign=top;childLayout=stackLayout;horizontal=1;startSize=26;horizontalStack=0;resizeParent=1;resizeLast=0;collapsible=1;marginBottom=0;rounded=0;shadow=0;strokeWidth=1;labelBackgroundColor=none;fontSize=13;fillColor=#FAE5C7;strokeColor=#0F8B8D;fontColor=#143642;" vertex="1" parent="WIyWlLk6GJQsqaUBKTNV-1">
          <mxGeometry x="490" y="-1305" width="220" height="220" as="geometry">
            <mxRectangle x="130" y="380" width="160" height="26" as="alternateBounds" />
          </mxGeometry>
        </mxCell>
        <mxCell id="EdTaeyGL8FUxiMYROmDw-3" value="- truckSerialNumber : 98373214" style="text;align=left;verticalAlign=top;spacingLeft=4;spacingRight=4;overflow=hidden;rotatable=0;points=[[0,0.5],[1,0.5]];portConstraint=eastwest;labelBackgroundColor=none;rounded=0;fontStyle=1;fontSize=13;horizontal=1;fontColor=#143642;" vertex="1" parent="EdTaeyGL8FUxiMYROmDw-2">
          <mxGeometry y="26" width="220" height="26" as="geometry" />
        </mxCell>
        <mxCell id="EdTaeyGL8FUxiMYROmDw-4" value="- date : 05.04.2023" style="text;align=left;verticalAlign=top;spacingLeft=4;spacingRight=4;overflow=hidden;rotatable=0;points=[[0,0.5],[1,0.5]];portConstraint=eastwest;labelBackgroundColor=none;rounded=0;fontStyle=1;fontSize=13;horizontal=1;fontColor=#143642;" vertex="1" parent="EdTaeyGL8FUxiMYROmDw-2">
          <mxGeometry y="52" width="220" height="26" as="geometry" />
        </mxCell>
        <mxCell id="EdTaeyGL8FUxiMYROmDw-5" value="- departureHour : 10:10" style="text;align=left;verticalAlign=top;spacingLeft=4;spacingRight=4;overflow=hidden;rotatable=0;points=[[0,0.5],[1,0.5]];portConstraint=eastwest;labelBackgroundColor=none;rounded=0;fontStyle=1;fontSize=13;horizontal=1;fontColor=#143642;" vertex="1" parent="EdTaeyGL8FUxiMYROmDw-2">
          <mxGeometry y="78" width="220" height="30" as="geometry" />
        </mxCell>
        <mxCell id="EdTaeyGL8FUxiMYROmDw-6" value="- driverId : 31612" style="text;align=left;verticalAlign=top;spacingLeft=4;spacingRight=4;overflow=hidden;rotatable=0;points=[[0,0.5],[1,0.5]];portConstraint=eastwest;labelBackgroundColor=none;rounded=0;fontStyle=1;fontSize=13;horizontal=1;fontColor=#143642;" vertex="1" parent="EdTaeyGL8FUxiMYROmDw-2">
          <mxGeometry y="108" width="220" height="26" as="geometry" />
        </mxCell>
        <mxCell id="EdTaeyGL8FUxiMYROmDw-7" value="Â - shipmentNum: 10&#xa;" style="text;labelBackgroundColor=none;rounded=0;fontStyle=1;fontSize=13;horizontal=1;fontColor=#143642;" vertex="1" parent="EdTaeyGL8FUxiMYROmDw-2">
          <mxGeometry y="134" width="220" height="26" as="geometry" />
        </mxCell>
        <mxCell id="EdTaeyGL8FUxiMYROmDw-8" value="Â - type : Freezer" style="text;labelBackgroundColor=none;rounded=0;fontStyle=1;fontSize=13;horizontal=1;fontColor=#143642;" vertex="1" parent="EdTaeyGL8FUxiMYROmDw-2">
          <mxGeometry y="160" width="220" height="26" as="geometry" />
        </mxCell>
        <mxCell id="EdTaeyGL8FUxiMYROmDw-9" value="Â - driverName: Omer Adam" style="text;labelBackgroundColor=none;rounded=0;fontStyle=1;fontSize=13;horizontal=1;fontColor=#143642;" vertex="1" parent="EdTaeyGL8FUxiMYROmDw-2">
          <mxGeometry y="186" width="220" height="26" as="geometry" />
        </mxCell>
        <mxCell id="EdTaeyGL8FUxiMYROmDw-10" value="15: ShippingDocument" style="swimlane;fontStyle=1;align=center;verticalAlign=top;childLayout=stackLayout;horizontal=1;startSize=26;horizontalStack=0;resizeParent=1;resizeLast=0;collapsible=1;marginBottom=0;rounded=0;shadow=0;strokeWidth=1;labelBackgroundColor=none;fontSize=13;fillColor=#FAE5C7;strokeColor=#0F8B8D;fontColor=#143642;" vertex="1" parent="WIyWlLk6GJQsqaUBKTNV-1">
          <mxGeometry x="420" y="-1465" width="160" height="130" as="geometry">
            <mxRectangle x="130" y="380" width="160" height="26" as="alternateBounds" />
          </mxGeometry>
        </mxCell>
        <mxCell id="EdTaeyGL8FUxiMYROmDw-11" value="- serialNumber: 15" style="text;align=left;verticalAlign=top;spacingLeft=4;spacingRight=4;overflow=hidden;rotatable=0;points=[[0,0.5],[1,0.5]];portConstraint=eastwest;labelBackgroundColor=none;rounded=0;fontStyle=1;fontSize=13;horizontal=1;fontColor=#143642;" vertex="1" parent="EdTaeyGL8FUxiMYROmDw-10">
          <mxGeometry y="26" width="160" height="24" as="geometry" />
        </mxCell>
        <mxCell id="EdTaeyGL8FUxiMYROmDw-12" value="- date : 05.03.2023" style="text;align=left;verticalAlign=top;spacingLeft=4;spacingRight=4;overflow=hidden;rotatable=0;points=[[0,0.5],[1,0.5]];portConstraint=eastwest;labelBackgroundColor=none;rounded=0;fontStyle=1;fontSize=13;horizontal=1;fontColor=#143642;" vertex="1" parent="EdTaeyGL8FUxiMYROmDw-10">
          <mxGeometry y="50" width="160" height="26" as="geometry" />
        </mxCell>
        <mxCell id="EdTaeyGL8FUxiMYROmDw-13" value="- departureHour : 10:10" style="text;align=left;verticalAlign=top;spacingLeft=4;spacingRight=4;overflow=hidden;rotatable=0;points=[[0,0.5],[1,0.5]];portConstraint=eastwest;labelBackgroundColor=none;rounded=0;fontStyle=1;fontSize=13;horizontal=1;fontColor=#143642;" vertex="1" parent="EdTaeyGL8FUxiMYROmDw-10">
          <mxGeometry y="76" width="160" height="26" as="geometry" />
        </mxCell>
        <mxCell id="EdTaeyGL8FUxiMYROmDw-14" value="17: ShippingDocument" style="swimlane;fontStyle=1;align=center;verticalAlign=top;childLayout=stackLayout;horizontal=1;startSize=26;horizontalStack=0;resizeParent=1;resizeLast=0;collapsible=1;marginBottom=0;rounded=0;shadow=0;strokeWidth=1;labelBackgroundColor=none;fontSize=13;fillColor=#FAE5C7;strokeColor=#0F8B8D;fontColor=#143642;" vertex="1" parent="WIyWlLk6GJQsqaUBKTNV-1">
          <mxGeometry x="310" y="-700" width="160" height="130" as="geometry">
            <mxRectangle x="130" y="380" width="160" height="26" as="alternateBounds" />
          </mxGeometry>
        </mxCell>
        <mxCell id="EdTaeyGL8FUxiMYROmDw-15" value="- serialNumber: 17" style="text;align=left;verticalAlign=top;spacingLeft=4;spacingRight=4;overflow=hidden;rotatable=0;points=[[0,0.5],[1,0.5]];portConstraint=eastwest;labelBackgroundColor=none;rounded=0;fontStyle=1;fontSize=13;horizontal=1;fontColor=#143642;" vertex="1" parent="EdTaeyGL8FUxiMYROmDw-14">
          <mxGeometry y="26" width="160" height="26" as="geometry" />
        </mxCell>
        <mxCell id="EdTaeyGL8FUxiMYROmDw-16" value="- date : 05.03.2023" style="text;align=left;verticalAlign=top;spacingLeft=4;spacingRight=4;overflow=hidden;rotatable=0;points=[[0,0.5],[1,0.5]];portConstraint=eastwest;labelBackgroundColor=none;rounded=0;fontStyle=1;fontSize=13;horizontal=1;fontColor=#143642;" vertex="1" parent="EdTaeyGL8FUxiMYROmDw-14">
          <mxGeometry y="52" width="160" height="26" as="geometry" />
        </mxCell>
        <mxCell id="EdTaeyGL8FUxiMYROmDw-17" value="- departureHour : 10:10" style="text;align=left;verticalAlign=top;spacingLeft=4;spacingRight=4;overflow=hidden;rotatable=0;points=[[0,0.5],[1,0.5]];portConstraint=eastwest;labelBackgroundColor=none;rounded=0;fontStyle=1;fontSize=13;horizontal=1;fontColor=#143642;" vertex="1" parent="EdTaeyGL8FUxiMYROmDw-14">
          <mxGeometry y="78" width="160" height="26" as="geometry" />
        </mxCell>
        <mxCell id="EdTaeyGL8FUxiMYROmDw-18" value="RabiAkiva 5 : Site" style="swimlane;fontStyle=1;align=center;verticalAlign=top;childLayout=stackLayout;horizontal=1;startSize=26;horizontalStack=0;resizeParent=1;resizeLast=0;collapsible=1;marginBottom=0;rounded=0;shadow=0;strokeWidth=1;labelBackgroundColor=none;fillColor=#FAE5C7;strokeColor=#0F8B8D;fontColor=#143642;" vertex="1" parent="WIyWlLk6GJQsqaUBKTNV-1">
          <mxGeometry x="50" y="-2200" width="240" height="160" as="geometry">
            <mxRectangle x="130" y="380" width="160" height="26" as="alternateBounds" />
          </mxGeometry>
        </mxCell>
        <mxCell id="EdTaeyGL8FUxiMYROmDw-19" value="- Address: Hamaaian 2, BeerSheva" style="text;align=left;verticalAlign=top;spacingLeft=4;spacingRight=4;overflow=hidden;rotatable=0;points=[[0,0.5],[1,0.5]];portConstraint=eastwest;labelBackgroundColor=none;rounded=0;fontStyle=1;fontColor=#143642;" vertex="1" parent="EdTaeyGL8FUxiMYROmDw-18">
          <mxGeometry y="26" width="240" height="26" as="geometry" />
        </mxCell>
        <mxCell id="EdTaeyGL8FUxiMYROmDw-20" value="- Contact: Ron" style="text;align=left;verticalAlign=top;spacingLeft=4;spacingRight=4;overflow=hidden;rotatable=0;points=[[0,0.5],[1,0.5]];portConstraint=eastwest;labelBackgroundColor=none;rounded=0;fontStyle=1;fontColor=#143642;" vertex="1" parent="EdTaeyGL8FUxiMYROmDw-18">
          <mxGeometry y="52" width="240" height="26" as="geometry" />
        </mxCell>
        <mxCell id="EdTaeyGL8FUxiMYROmDw-21" value="- ContactPhoneNumber: 0123456789" style="text;align=left;verticalAlign=top;spacingLeft=4;spacingRight=4;overflow=hidden;rotatable=0;points=[[0,0.5],[1,0.5]];portConstraint=eastwest;labelBackgroundColor=none;rounded=0;fontStyle=1;fontColor=#143642;" vertex="1" parent="EdTaeyGL8FUxiMYROmDw-18">
          <mxGeometry y="78" width="240" height="30" as="geometry" />
        </mxCell>
        <mxCell id="EdTaeyGL8FUxiMYROmDw-22" value="- Area: South" style="text;align=left;verticalAlign=top;spacingLeft=4;spacingRight=4;overflow=hidden;rotatable=0;points=[[0,0.5],[1,0.5]];portConstraint=eastwest;labelBackgroundColor=none;rounded=0;fontStyle=1;fontColor=#143642;" vertex="1" parent="EdTaeyGL8FUxiMYROmDw-18">
          <mxGeometry y="108" width="240" height="30" as="geometry" />
        </mxCell>
        <mxCell id="EdTaeyGL8FUxiMYROmDw-23" value="Rager 155 : Site" style="swimlane;fontStyle=1;align=center;verticalAlign=top;childLayout=stackLayout;horizontal=1;startSize=26;horizontalStack=0;resizeParent=1;resizeLast=0;collapsible=1;marginBottom=0;rounded=0;shadow=0;strokeWidth=1;labelBackgroundColor=none;fillColor=#FAE5C7;strokeColor=#0F8B8D;fontColor=#143642;" vertex="1" parent="WIyWlLk6GJQsqaUBKTNV-1">
          <mxGeometry x="50" y="-1000" width="240" height="160" as="geometry">
            <mxRectangle x="130" y="380" width="160" height="26" as="alternateBounds" />
          </mxGeometry>
        </mxCell>
        <mxCell id="EdTaeyGL8FUxiMYROmDw-24" value="- Address: Rager 155, Dimona" style="text;align=left;verticalAlign=top;spacingLeft=4;spacingRight=4;overflow=hidden;rotatable=0;points=[[0,0.5],[1,0.5]];portConstraint=eastwest;labelBackgroundColor=none;rounded=0;fontStyle=1;fontColor=#143642;" vertex="1" parent="EdTaeyGL8FUxiMYROmDw-23">
          <mxGeometry y="26" width="240" height="26" as="geometry" />
        </mxCell>
        <mxCell id="EdTaeyGL8FUxiMYROmDw-25" value="- Contact: Tom" style="text;align=left;verticalAlign=top;spacingLeft=4;spacingRight=4;overflow=hidden;rotatable=0;points=[[0,0.5],[1,0.5]];portConstraint=eastwest;labelBackgroundColor=none;rounded=0;fontStyle=1;fontColor=#143642;" vertex="1" parent="EdTaeyGL8FUxiMYROmDw-23">
          <mxGeometry y="52" width="240" height="26" as="geometry" />
        </mxCell>
        <mxCell id="EdTaeyGL8FUxiMYROmDw-26" value="- ContactPhoneNumber: 0121111111" style="text;align=left;verticalAlign=top;spacingLeft=4;spacingRight=4;overflow=hidden;rotatable=0;points=[[0,0.5],[1,0.5]];portConstraint=eastwest;labelBackgroundColor=none;rounded=0;fontStyle=1;fontColor=#143642;" vertex="1" parent="EdTaeyGL8FUxiMYROmDw-23">
          <mxGeometry y="78" width="240" height="30" as="geometry" />
        </mxCell>
        <mxCell id="EdTaeyGL8FUxiMYROmDw-27" value="- Area: South" style="text;align=left;verticalAlign=top;spacingLeft=4;spacingRight=4;overflow=hidden;rotatable=0;points=[[0,0.5],[1,0.5]];portConstraint=eastwest;labelBackgroundColor=none;rounded=0;fontStyle=1;fontColor=#143642;" vertex="1" parent="EdTaeyGL8FUxiMYROmDw-23">
          <mxGeometry y="108" width="240" height="30" as="geometry" />
        </mxCell>
        <mxCell id="EdTaeyGL8FUxiMYROmDw-193" style="edgeStyle=orthogonalEdgeStyle;rounded=0;orthogonalLoop=1;jettySize=auto;html=1;exitX=0.5;exitY=0;exitDx=0;exitDy=0;labelBackgroundColor=none;strokeColor=#A8201A;fontColor=default;fontStyle=1" edge="1" parent="WIyWlLk6GJQsqaUBKTNV-1" source="EdTaeyGL8FUxiMYROmDw-32" target="EdTaeyGL8FUxiMYROmDw-12">
          <mxGeometry relative="1" as="geometry">
            <Array as="points">
              <mxPoint x="-620" y="-1410" />
            </Array>
          </mxGeometry>
        </mxCell>
        <mxCell id="EdTaeyGL8FUxiMYROmDw-223" style="edgeStyle=orthogonalEdgeStyle;rounded=0;orthogonalLoop=1;jettySize=auto;html=1;exitX=0.5;exitY=1;exitDx=0;exitDy=0;strokeColor=#A8201A;fontColor=#143642;fillColor=#FAE5C7;" edge="1" parent="WIyWlLk6GJQsqaUBKTNV-1" source="EdTaeyGL8FUxiMYROmDw-32">
          <mxGeometry relative="1" as="geometry">
            <mxPoint x="390" y="-570" as="targetPoint" />
            <Array as="points">
              <mxPoint x="-780" y="-1232" />
              <mxPoint x="-780" y="-420" />
              <mxPoint x="390" y="-420" />
            </Array>
          </mxGeometry>
        </mxCell>
        <mxCell id="EdTaeyGL8FUxiMYROmDw-32" value="Omer Adam: ShippingDriver" style="swimlane;fontStyle=1;align=center;verticalAlign=top;childLayout=stackLayout;horizontal=1;startSize=26;horizontalStack=0;resizeParent=1;resizeLast=0;collapsible=1;marginBottom=0;rounded=0;shadow=0;strokeWidth=1;labelBackgroundColor=none;fillColor=#FAE5C7;strokeColor=#0F8B8D;fontColor=#143642;" vertex="1" parent="WIyWlLk6GJQsqaUBKTNV-1">
          <mxGeometry x="-730" y="-1400" width="220" height="168" as="geometry">
            <mxRectangle x="130" y="380" width="160" height="26" as="alternateBounds" />
          </mxGeometry>
        </mxCell>
        <mxCell id="EdTaeyGL8FUxiMYROmDw-33" value="- id : 31612" style="text;align=left;verticalAlign=top;spacingLeft=4;spacingRight=4;overflow=hidden;rotatable=0;points=[[0,0.5],[1,0.5]];portConstraint=eastwest;labelBackgroundColor=none;rounded=0;fontStyle=1;fontColor=#143642;" vertex="1" parent="EdTaeyGL8FUxiMYROmDw-32">
          <mxGeometry y="26" width="220" height="26" as="geometry" />
        </mxCell>
        <mxCell id="EdTaeyGL8FUxiMYROmDw-34" value="- license: CÂ " style="text;align=left;verticalAlign=top;spacingLeft=4;spacingRight=4;overflow=hidden;rotatable=0;points=[[0,0.5],[1,0.5]];portConstraint=eastwest;labelBackgroundColor=none;rounded=0;fontStyle=1;fontColor=#143642;" vertex="1" parent="EdTaeyGL8FUxiMYROmDw-32">
          <mxGeometry y="52" width="220" height="26" as="geometry" />
        </mxCell>
        <mxCell id="EdTaeyGL8FUxiMYROmDw-35" value="- name: Omer Adam" style="text;align=left;verticalAlign=top;spacingLeft=4;spacingRight=4;overflow=hidden;rotatable=0;points=[[0,0.5],[1,0.5]];portConstraint=eastwest;labelBackgroundColor=none;rounded=0;fontStyle=1;fontColor=#143642;" vertex="1" parent="EdTaeyGL8FUxiMYROmDw-32">
          <mxGeometry y="78" width="220" height="26" as="geometry" />
        </mxCell>
        <mxCell id="EdTaeyGL8FUxiMYROmDw-36" value="- training: Freezer" style="text;align=left;verticalAlign=top;spacingLeft=4;spacingRight=4;overflow=hidden;rotatable=0;points=[[0,0.5],[1,0.5]];portConstraint=eastwest;labelBackgroundColor=none;rounded=0;fontStyle=1;fontColor=#143642;" vertex="1" parent="EdTaeyGL8FUxiMYROmDw-32">
          <mxGeometry y="104" width="220" height="26" as="geometry" />
        </mxCell>
        <mxCell id="EdTaeyGL8FUxiMYROmDw-37" value="- availablity: [WednesdayÂ ,Tuesday]" style="text;align=left;verticalAlign=top;spacingLeft=4;spacingRight=4;overflow=hidden;rotatable=0;points=[[0,0.5],[1,0.5]];portConstraint=eastwest;labelBackgroundColor=none;rounded=0;fontStyle=1;fontColor=#143642;" vertex="1" parent="EdTaeyGL8FUxiMYROmDw-32">
          <mxGeometry y="130" width="220" height="26" as="geometry" />
        </mxCell>
        <mxCell id="EdTaeyGL8FUxiMYROmDw-41" value="CharosetIcecream: ShippingItem" style="swimlane;fontStyle=1;align=center;verticalAlign=top;childLayout=stackLayout;horizontal=1;startSize=26;horizontalStack=0;resizeParent=1;resizeLast=0;collapsible=1;marginBottom=0;rounded=0;shadow=0;strokeWidth=1;labelBackgroundColor=none;fontSize=13;fillColor=#FAE5C7;strokeColor=#0F8B8D;fontColor=#143642;" vertex="1" parent="WIyWlLk6GJQsqaUBKTNV-1">
          <mxGeometry x="-570" y="-780" width="220" height="85.75" as="geometry">
            <mxRectangle x="130" y="380" width="160" height="26" as="alternateBounds" />
          </mxGeometry>
        </mxCell>
        <mxCell id="EdTaeyGL8FUxiMYROmDw-42" value="- name :Â CharosetIcecream" style="text;align=left;verticalAlign=top;spacingLeft=4;spacingRight=4;overflow=hidden;rotatable=0;points=[[0,0.5],[1,0.5]];portConstraint=eastwest;labelBackgroundColor=none;rounded=0;fontStyle=1;fontSize=13;horizontal=1;fontColor=#143642;" vertex="1" parent="EdTaeyGL8FUxiMYROmDw-41">
          <mxGeometry y="26" width="220" height="26" as="geometry" />
        </mxCell>
        <mxCell id="EdTaeyGL8FUxiMYROmDw-43" value="- needCool :Â true" style="text;align=left;verticalAlign=top;spacingLeft=4;spacingRight=4;overflow=hidden;rotatable=0;points=[[0,0.5],[1,0.5]];portConstraint=eastwest;labelBackgroundColor=none;rounded=0;fontStyle=1;fontSize=13;horizontal=1;fontColor=#143642;" vertex="1" parent="EdTaeyGL8FUxiMYROmDw-41">
          <mxGeometry y="52" width="220" height="26" as="geometry" />
        </mxCell>
        <mxCell id="EdTaeyGL8FUxiMYROmDw-47" value="CarobChocolateUmbrella: ShippingItem" style="swimlane;fontStyle=1;align=center;verticalAlign=top;childLayout=stackLayout;horizontal=1;startSize=26;horizontalStack=0;resizeParent=1;resizeLast=0;collapsible=1;marginBottom=0;rounded=0;shadow=0;strokeWidth=1;labelBackgroundColor=none;fontSize=13;fillColor=#FAE5C7;strokeColor=#0F8B8D;fontColor=#143642;" vertex="1" parent="WIyWlLk6GJQsqaUBKTNV-1">
          <mxGeometry x="-450" y="-1760" width="260" height="85.75" as="geometry">
            <mxRectangle x="130" y="380" width="160" height="26" as="alternateBounds" />
          </mxGeometry>
        </mxCell>
        <mxCell id="EdTaeyGL8FUxiMYROmDw-48" value="- name :Â CarobChocolateUmbrellaÂ " style="text;align=left;verticalAlign=top;spacingLeft=4;spacingRight=4;overflow=hidden;rotatable=0;points=[[0,0.5],[1,0.5]];portConstraint=eastwest;labelBackgroundColor=none;rounded=0;fontStyle=1;fontSize=13;horizontal=1;fontColor=#143642;" vertex="1" parent="EdTaeyGL8FUxiMYROmDw-47">
          <mxGeometry y="26" width="260" height="26" as="geometry" />
        </mxCell>
        <mxCell id="EdTaeyGL8FUxiMYROmDw-49" value="- needCool :Â false" style="text;align=left;verticalAlign=top;spacingLeft=4;spacingRight=4;overflow=hidden;rotatable=0;points=[[0,0.5],[1,0.5]];portConstraint=eastwest;labelBackgroundColor=none;rounded=0;fontStyle=1;fontSize=13;horizontal=1;fontColor=#143642;" vertex="1" parent="EdTaeyGL8FUxiMYROmDw-47">
          <mxGeometry y="52" width="260" height="26" as="geometry" />
        </mxCell>
        <mxCell id="EdTaeyGL8FUxiMYROmDw-53" value="RedBamba:ShippingItem" style="swimlane;fontStyle=1;align=center;verticalAlign=top;childLayout=stackLayout;horizontal=1;startSize=26;horizontalStack=0;resizeParent=1;resizeLast=0;collapsible=1;marginBottom=0;rounded=0;shadow=0;strokeWidth=1;labelBackgroundColor=none;fontSize=13;fillColor=#FAE5C7;strokeColor=#0F8B8D;fontColor=#143642;" vertex="1" parent="WIyWlLk6GJQsqaUBKTNV-1">
          <mxGeometry x="-760" y="-1760" width="260" height="85.75" as="geometry">
            <mxRectangle x="130" y="380" width="160" height="26" as="alternateBounds" />
          </mxGeometry>
        </mxCell>
        <mxCell id="EdTaeyGL8FUxiMYROmDw-54" value="- name : RedBamba" style="text;align=left;verticalAlign=top;spacingLeft=4;spacingRight=4;overflow=hidden;rotatable=0;points=[[0,0.5],[1,0.5]];portConstraint=eastwest;labelBackgroundColor=none;rounded=0;fontStyle=1;fontSize=13;horizontal=1;fontColor=#143642;" vertex="1" parent="EdTaeyGL8FUxiMYROmDw-53">
          <mxGeometry y="26" width="260" height="26" as="geometry" />
        </mxCell>
        <mxCell id="EdTaeyGL8FUxiMYROmDw-55" value="- needCool :Â false" style="text;align=left;verticalAlign=top;spacingLeft=4;spacingRight=4;overflow=hidden;rotatable=0;points=[[0,0.5],[1,0.5]];portConstraint=eastwest;labelBackgroundColor=none;rounded=0;fontStyle=1;fontSize=13;horizontal=1;fontColor=#143642;" vertex="1" parent="EdTaeyGL8FUxiMYROmDw-53">
          <mxGeometry y="52" width="260" height="26" as="geometry" />
        </mxCell>
        <mxCell id="EdTaeyGL8FUxiMYROmDw-58" value="11111111: NormalTruck&#xa;" style="swimlane;fontStyle=1;align=center;verticalAlign=top;childLayout=stackLayout;horizontal=1;startSize=26;horizontalStack=0;resizeParent=1;resizeLast=0;collapsible=1;marginBottom=0;rounded=0;shadow=0;strokeWidth=1;labelBackgroundColor=none;fontSize=12;fillColor=#FAE5C7;strokeColor=#0F8B8D;fontColor=#143642;" vertex="1" parent="WIyWlLk6GJQsqaUBKTNV-1">
          <mxGeometry x="-740" y="-1169" width="220" height="112" as="geometry">
            <mxRectangle y="515" width="160" height="26" as="alternateBounds" />
          </mxGeometry>
        </mxCell>
        <mxCell id="EdTaeyGL8FUxiMYROmDw-59" value="- truckSerialNumber: 11111111" style="text;align=left;verticalAlign=top;spacingLeft=4;spacingRight=4;overflow=hidden;rotatable=0;points=[[0,0.5],[1,0.5]];portConstraint=eastwest;labelBackgroundColor=none;rounded=0;fontStyle=1;fontSize=12;fontColor=#143642;" vertex="1" parent="EdTaeyGL8FUxiMYROmDw-58">
          <mxGeometry y="26" width="220" height="26" as="geometry" />
        </mxCell>
        <mxCell id="EdTaeyGL8FUxiMYROmDw-60" value="- capacity: 1000" style="text;align=left;verticalAlign=top;spacingLeft=4;spacingRight=4;overflow=hidden;rotatable=0;points=[[0,0.5],[1,0.5]];portConstraint=eastwest;labelBackgroundColor=none;rounded=0;fontStyle=1;fontSize=12;fontColor=#143642;" vertex="1" parent="EdTaeyGL8FUxiMYROmDw-58">
          <mxGeometry y="52" width="220" height="30" as="geometry" />
        </mxCell>
        <mxCell id="EdTaeyGL8FUxiMYROmDw-61" value="- inUse: false" style="text;align=left;verticalAlign=top;spacingLeft=4;spacingRight=4;overflow=hidden;rotatable=0;points=[[0,0.5],[1,0.5]];portConstraint=eastwest;labelBackgroundColor=none;rounded=0;fontStyle=1;fontSize=12;fontColor=#143642;" vertex="1" parent="EdTaeyGL8FUxiMYROmDw-58">
          <mxGeometry y="82" width="220" height="30" as="geometry" />
        </mxCell>
        <mxCell id="EdTaeyGL8FUxiMYROmDw-76" value="20" style="text;html=1;strokeColor=none;fillColor=none;align=center;verticalAlign=middle;whiteSpace=wrap;rounded=0;labelBackgroundColor=none;fontColor=#143642;fontStyle=1" vertex="1" parent="WIyWlLk6GJQsqaUBKTNV-1">
          <mxGeometry x="-460" y="-805.5" width="60" height="30" as="geometry" />
        </mxCell>
        <mxCell id="EdTaeyGL8FUxiMYROmDw-77" value="DragonIcecubes: ShippingItem" style="swimlane;fontStyle=1;align=center;verticalAlign=top;childLayout=stackLayout;horizontal=1;startSize=26;horizontalStack=0;resizeParent=1;resizeLast=0;collapsible=1;marginBottom=0;rounded=0;shadow=0;strokeWidth=1;labelBackgroundColor=none;fontSize=13;fillColor=#FAE5C7;strokeColor=#0F8B8D;fontColor=#143642;" vertex="1" parent="WIyWlLk6GJQsqaUBKTNV-1">
          <mxGeometry x="-50.00000000000006" y="-780" width="260" height="85.75" as="geometry">
            <mxRectangle x="130" y="380" width="160" height="26" as="alternateBounds" />
          </mxGeometry>
        </mxCell>
        <mxCell id="EdTaeyGL8FUxiMYROmDw-78" value="- name : DragonIcecubesÂ " style="text;align=left;verticalAlign=top;spacingLeft=4;spacingRight=4;overflow=hidden;rotatable=0;points=[[0,0.5],[1,0.5]];portConstraint=eastwest;labelBackgroundColor=none;rounded=0;fontStyle=1;fontSize=13;horizontal=1;fontColor=#143642;" vertex="1" parent="EdTaeyGL8FUxiMYROmDw-77">
          <mxGeometry y="26" width="260" height="26" as="geometry" />
        </mxCell>
        <mxCell id="EdTaeyGL8FUxiMYROmDw-79" value="- needCool : true" style="text;align=left;verticalAlign=top;spacingLeft=4;spacingRight=4;overflow=hidden;rotatable=0;points=[[0,0.5],[1,0.5]];portConstraint=eastwest;labelBackgroundColor=none;rounded=0;fontStyle=1;fontSize=13;horizontal=1;fontColor=#143642;" vertex="1" parent="EdTaeyGL8FUxiMYROmDw-77">
          <mxGeometry y="52" width="260" height="26" as="geometry" />
        </mxCell>
        <mxCell id="EdTaeyGL8FUxiMYROmDw-80" value="BambaBuli:ShippingItem" style="swimlane;fontStyle=1;align=center;verticalAlign=top;childLayout=stackLayout;horizontal=1;startSize=26;horizontalStack=0;resizeParent=1;resizeLast=0;collapsible=1;marginBottom=0;rounded=0;shadow=0;strokeWidth=1;labelBackgroundColor=none;fontSize=13;fillColor=#FAE5C7;strokeColor=#0F8B8D;fontColor=#143642;" vertex="1" parent="WIyWlLk6GJQsqaUBKTNV-1">
          <mxGeometry x="-140" y="-1755.5" width="219.37" height="85.75" as="geometry">
            <mxRectangle x="130" y="380" width="160" height="26" as="alternateBounds" />
          </mxGeometry>
        </mxCell>
        <mxCell id="EdTaeyGL8FUxiMYROmDw-81" value="- name : BambaBuli" style="text;align=left;verticalAlign=top;spacingLeft=4;spacingRight=4;overflow=hidden;rotatable=0;points=[[0,0.5],[1,0.5]];portConstraint=eastwest;labelBackgroundColor=none;rounded=0;fontStyle=1;fontSize=13;horizontal=1;fontColor=#143642;" vertex="1" parent="EdTaeyGL8FUxiMYROmDw-80">
          <mxGeometry y="26" width="219.37" height="26" as="geometry" />
        </mxCell>
        <mxCell id="EdTaeyGL8FUxiMYROmDw-82" value="- needCool : false" style="text;align=left;verticalAlign=top;spacingLeft=4;spacingRight=4;overflow=hidden;rotatable=0;points=[[0,0.5],[1,0.5]];portConstraint=eastwest;labelBackgroundColor=none;rounded=0;fontStyle=1;fontSize=13;horizontal=1;fontColor=#143642;" vertex="1" parent="EdTaeyGL8FUxiMYROmDw-80">
          <mxGeometry y="52" width="219.37" height="26" as="geometry" />
        </mxCell>
        <mxCell id="EdTaeyGL8FUxiMYROmDw-83" value="ArtichokeIcecream: ShippingItem" style="swimlane;fontStyle=1;align=center;verticalAlign=top;childLayout=stackLayout;horizontal=1;startSize=26;horizontalStack=0;resizeParent=1;resizeLast=0;collapsible=1;marginBottom=0;rounded=0;shadow=0;strokeWidth=1;labelBackgroundColor=none;fontSize=13;fillColor=#FAE5C7;strokeColor=#0F8B8D;fontColor=#143642;" vertex="1" parent="WIyWlLk6GJQsqaUBKTNV-1">
          <mxGeometry x="120" y="-1757.75" width="219.37" height="90.25" as="geometry">
            <mxRectangle x="130" y="380" width="160" height="26" as="alternateBounds" />
          </mxGeometry>
        </mxCell>
        <mxCell id="EdTaeyGL8FUxiMYROmDw-84" value="- name :Â ArtichokeIcecream" style="text;align=left;verticalAlign=top;spacingLeft=4;spacingRight=4;overflow=hidden;rotatable=0;points=[[0,0.5],[1,0.5]];portConstraint=eastwest;labelBackgroundColor=none;rounded=0;fontStyle=1;fontSize=13;horizontal=1;fontColor=#143642;" vertex="1" parent="EdTaeyGL8FUxiMYROmDw-83">
          <mxGeometry y="26" width="219.37" height="26" as="geometry" />
        </mxCell>
        <mxCell id="EdTaeyGL8FUxiMYROmDw-85" value="- needCool :Â true" style="text;align=left;verticalAlign=top;spacingLeft=4;spacingRight=4;overflow=hidden;rotatable=0;points=[[0,0.5],[1,0.5]];portConstraint=eastwest;labelBackgroundColor=none;rounded=0;fontStyle=1;fontSize=13;horizontal=1;fontColor=#143642;" vertex="1" parent="EdTaeyGL8FUxiMYROmDw-83">
          <mxGeometry y="52" width="219.37" height="26" as="geometry" />
        </mxCell>
        <mxCell id="EdTaeyGL8FUxiMYROmDw-90" value="12" style="text;html=1;strokeColor=none;fillColor=none;align=center;verticalAlign=middle;whiteSpace=wrap;rounded=0;labelBackgroundColor=none;fontColor=#143642;fontStyle=1" vertex="1" parent="WIyWlLk6GJQsqaUBKTNV-1">
          <mxGeometry x="80" y="-805.5" width="60" height="30" as="geometry" />
        </mxCell>
        <mxCell id="EdTaeyGL8FUxiMYROmDw-92" value="SP" style="text;html=1;strokeColor=none;fillColor=none;align=center;verticalAlign=middle;whiteSpace=wrap;rounded=0;labelBackgroundColor=none;fontColor=#143642;fontStyle=1" vertex="1" parent="WIyWlLk6GJQsqaUBKTNV-1">
          <mxGeometry x="-520" y="-807.75" width="60" height="30" as="geometry" />
        </mxCell>
        <mxCell id="EdTaeyGL8FUxiMYROmDw-93" value="SP" style="text;html=1;strokeColor=none;fillColor=none;align=center;verticalAlign=middle;whiteSpace=wrap;rounded=0;labelBackgroundColor=none;fontColor=#143642;fontStyle=1" vertex="1" parent="WIyWlLk6GJQsqaUBKTNV-1">
          <mxGeometry x="20" y="-807.75" width="60" height="30" as="geometry" />
        </mxCell>
        <mxCell id="EdTaeyGL8FUxiMYROmDw-94" value="SP" style="text;html=1;strokeColor=none;fillColor=none;align=center;verticalAlign=middle;whiteSpace=wrap;rounded=0;labelBackgroundColor=none;fontColor=#143642;fontStyle=1" vertex="1" parent="WIyWlLk6GJQsqaUBKTNV-1">
          <mxGeometry x="-690" y="-1790" width="60" height="30" as="geometry" />
        </mxCell>
        <mxCell id="EdTaeyGL8FUxiMYROmDw-95" value="SP" style="text;html=1;strokeColor=none;fillColor=none;align=center;verticalAlign=middle;whiteSpace=wrap;rounded=0;labelBackgroundColor=none;fontColor=#143642;fontStyle=1" vertex="1" parent="WIyWlLk6GJQsqaUBKTNV-1">
          <mxGeometry x="-390" y="-1790" width="60" height="30" as="geometry" />
        </mxCell>
        <mxCell id="EdTaeyGL8FUxiMYROmDw-96" value="SP" style="text;html=1;strokeColor=none;fillColor=none;align=center;verticalAlign=middle;whiteSpace=wrap;rounded=0;labelBackgroundColor=none;fontColor=#143642;fontStyle=1" vertex="1" parent="WIyWlLk6GJQsqaUBKTNV-1">
          <mxGeometry x="-79" y="-1785.5" width="60" height="30" as="geometry" />
        </mxCell>
        <mxCell id="EdTaeyGL8FUxiMYROmDw-97" value="SP" style="text;html=1;strokeColor=none;fillColor=none;align=center;verticalAlign=middle;whiteSpace=wrap;rounded=0;labelBackgroundColor=none;fontColor=#143642;fontStyle=1" vertex="1" parent="WIyWlLk6GJQsqaUBKTNV-1">
          <mxGeometry x="-470" y="-757.75" width="60" height="30" as="geometry" />
        </mxCell>
        <mxCell id="EdTaeyGL8FUxiMYROmDw-98" value="SP" style="text;html=1;strokeColor=none;fillColor=none;align=center;verticalAlign=middle;whiteSpace=wrap;rounded=0;labelBackgroundColor=none;fontColor=#143642;fontStyle=1" vertex="1" parent="WIyWlLk6GJQsqaUBKTNV-1">
          <mxGeometry x="170" y="-1790" width="60" height="30" as="geometry" />
        </mxCell>
        <mxCell id="EdTaeyGL8FUxiMYROmDw-99" value="1000" style="text;html=1;strokeColor=none;fillColor=none;align=center;verticalAlign=middle;whiteSpace=wrap;rounded=0;labelBackgroundColor=none;fontColor=#143642;fontStyle=1" vertex="1" parent="WIyWlLk6GJQsqaUBKTNV-1">
          <mxGeometry x="230" y="-1790" width="60" height="30" as="geometry" />
        </mxCell>
        <mxCell id="EdTaeyGL8FUxiMYROmDw-100" value="20" style="text;html=1;strokeColor=none;fillColor=none;align=center;verticalAlign=middle;whiteSpace=wrap;rounded=0;labelBackgroundColor=none;fontColor=#143642;fontStyle=1" vertex="1" parent="WIyWlLk6GJQsqaUBKTNV-1">
          <mxGeometry x="-19" y="-1785.5" width="60" height="30" as="geometry" />
        </mxCell>
        <mxCell id="EdTaeyGL8FUxiMYROmDw-101" value="16" style="text;html=1;strokeColor=none;fillColor=none;align=center;verticalAlign=middle;whiteSpace=wrap;rounded=0;labelBackgroundColor=none;fontColor=#143642;fontStyle=1" vertex="1" parent="WIyWlLk6GJQsqaUBKTNV-1">
          <mxGeometry x="-313.5" y="-1790" width="60" height="30" as="geometry" />
        </mxCell>
        <mxCell id="EdTaeyGL8FUxiMYROmDw-102" value="10" style="text;html=1;strokeColor=none;fillColor=none;align=center;verticalAlign=middle;whiteSpace=wrap;rounded=0;labelBackgroundColor=none;fontColor=#143642;fontStyle=1" vertex="1" parent="WIyWlLk6GJQsqaUBKTNV-1">
          <mxGeometry x="-630" y="-1790" width="60" height="30" as="geometry" />
        </mxCell>
        <mxCell id="EdTaeyGL8FUxiMYROmDw-103" value="holds" style="text;html=1;strokeColor=none;fillColor=none;align=center;verticalAlign=middle;whiteSpace=wrap;rounded=0;labelBackgroundColor=none;fontColor=#143642;fontStyle=1" vertex="1" parent="WIyWlLk6GJQsqaUBKTNV-1">
          <mxGeometry x="-161.5" y="-1840" width="60" height="30" as="geometry" />
        </mxCell>
        <mxCell id="EdTaeyGL8FUxiMYROmDw-104" value="holds" style="text;html=1;strokeColor=none;fillColor=none;align=center;verticalAlign=middle;whiteSpace=wrap;rounded=0;labelBackgroundColor=none;fontColor=#143642;fontStyle=1" vertex="1" parent="WIyWlLk6GJQsqaUBKTNV-1">
          <mxGeometry x="-190" y="-860" width="60" height="30" as="geometry" />
        </mxCell>
        <mxCell id="EdTaeyGL8FUxiMYROmDw-109" value="Destination" style="text;html=1;strokeColor=none;fillColor=none;align=center;verticalAlign=middle;whiteSpace=wrap;rounded=0;labelBackgroundColor=none;fontColor=#143642;fontStyle=1" vertex="1" parent="WIyWlLk6GJQsqaUBKTNV-1">
          <mxGeometry x="-10" y="-2135" width="60" height="30" as="geometry" />
        </mxCell>
        <mxCell id="EdTaeyGL8FUxiMYROmDw-110" value="Source" style="text;html=1;strokeColor=none;fillColor=none;align=center;verticalAlign=middle;whiteSpace=wrap;rounded=0;labelBackgroundColor=none;fontColor=#143642;fontStyle=1" vertex="1" parent="WIyWlLk6GJQsqaUBKTNV-1">
          <mxGeometry x="-10" y="-1925" width="60" height="30" as="geometry" />
        </mxCell>
        <mxCell id="EdTaeyGL8FUxiMYROmDw-112" style="edgeStyle=orthogonalEdgeStyle;orthogonalLoop=1;jettySize=auto;html=1;labelBackgroundColor=none;fontColor=default;strokeColor=#A8201A;fontStyle=1" edge="1" parent="WIyWlLk6GJQsqaUBKTNV-1" source="EdTaeyGL8FUxiMYROmDw-12" target="q5r-BAAe32Tt8XjZLQv0-8">
          <mxGeometry relative="1" as="geometry" />
        </mxCell>
        <mxCell id="EdTaeyGL8FUxiMYROmDw-113" style="edgeStyle=orthogonalEdgeStyle;orthogonalLoop=1;jettySize=auto;html=1;entryX=1;entryY=0.5;entryDx=0;entryDy=0;labelBackgroundColor=none;fontColor=default;strokeColor=#A8201A;fontStyle=1" edge="1" parent="WIyWlLk6GJQsqaUBKTNV-1" source="q5r-BAAe32Tt8XjZLQv0-62" target="EdTaeyGL8FUxiMYROmDw-21">
          <mxGeometry relative="1" as="geometry" />
        </mxCell>
        <mxCell id="EdTaeyGL8FUxiMYROmDw-115" style="edgeStyle=orthogonalEdgeStyle;orthogonalLoop=1;jettySize=auto;html=1;exitX=0;exitY=0.5;exitDx=0;exitDy=0;labelBackgroundColor=none;fontColor=default;strokeColor=#A8201A;fontStyle=1" edge="1" parent="WIyWlLk6GJQsqaUBKTNV-1" source="EdTaeyGL8FUxiMYROmDw-12" target="EdTaeyGL8FUxiMYROmDw-22">
          <mxGeometry relative="1" as="geometry" />
        </mxCell>
        <mxCell id="EdTaeyGL8FUxiMYROmDw-116" style="edgeStyle=orthogonalEdgeStyle;orthogonalLoop=1;jettySize=auto;html=1;exitX=0;exitY=0.5;exitDx=0;exitDy=0;entryX=1;entryY=0.5;entryDx=0;entryDy=0;labelBackgroundColor=none;fontColor=default;strokeColor=#A8201A;fontStyle=1" edge="1" parent="WIyWlLk6GJQsqaUBKTNV-1" source="q5r-BAAe32Tt8XjZLQv0-62" target="q5r-BAAe32Tt8XjZLQv0-7">
          <mxGeometry relative="1" as="geometry" />
        </mxCell>
        <mxCell id="EdTaeyGL8FUxiMYROmDw-117" value="Source" style="text;html=1;strokeColor=none;fillColor=none;align=center;verticalAlign=middle;whiteSpace=wrap;rounded=0;labelBackgroundColor=none;fontColor=#143642;fontStyle=1" vertex="1" parent="WIyWlLk6GJQsqaUBKTNV-1">
          <mxGeometry x="290" y="-1900" width="60" height="30" as="geometry" />
        </mxCell>
        <mxCell id="EdTaeyGL8FUxiMYROmDw-118" value="Source" style="text;html=1;strokeColor=none;fillColor=none;align=center;verticalAlign=middle;whiteSpace=wrap;rounded=0;labelBackgroundColor=none;fontColor=#143642;fontStyle=1" vertex="1" parent="WIyWlLk6GJQsqaUBKTNV-1">
          <mxGeometry x="279.3699999999999" y="-1960" width="60" height="30" as="geometry" />
        </mxCell>
        <mxCell id="EdTaeyGL8FUxiMYROmDw-121" value="Destination" style="text;html=1;strokeColor=none;fillColor=none;align=center;verticalAlign=middle;whiteSpace=wrap;rounded=0;labelBackgroundColor=none;fontColor=#143642;fontStyle=1" vertex="1" parent="WIyWlLk6GJQsqaUBKTNV-1">
          <mxGeometry x="290" y="-2135" width="60" height="30" as="geometry" />
        </mxCell>
        <mxCell id="EdTaeyGL8FUxiMYROmDw-122" value="Destination" style="text;html=1;strokeColor=none;fillColor=none;align=center;verticalAlign=middle;whiteSpace=wrap;rounded=0;labelBackgroundColor=none;fontColor=#143642;fontStyle=1" vertex="1" parent="WIyWlLk6GJQsqaUBKTNV-1">
          <mxGeometry x="289.04999999999995" y="-2070" width="40.63" height="25" as="geometry" />
        </mxCell>
        <mxCell id="EdTaeyGL8FUxiMYROmDw-124" style="edgeStyle=orthogonalEdgeStyle;orthogonalLoop=1;jettySize=auto;html=1;exitX=0;exitY=0.5;exitDx=0;exitDy=0;entryX=0.5;entryY=1;entryDx=0;entryDy=0;labelBackgroundColor=none;fontColor=default;strokeColor=#A8201A;fontStyle=1" edge="1" parent="WIyWlLk6GJQsqaUBKTNV-1" source="q5r-BAAe32Tt8XjZLQv0-62" target="EdTaeyGL8FUxiMYROmDw-80">
          <mxGeometry relative="1" as="geometry" />
        </mxCell>
        <mxCell id="EdTaeyGL8FUxiMYROmDw-125" style="edgeStyle=orthogonalEdgeStyle;orthogonalLoop=1;jettySize=auto;html=1;exitX=0;exitY=0.5;exitDx=0;exitDy=0;entryX=0.5;entryY=1;entryDx=0;entryDy=0;labelBackgroundColor=none;fontColor=default;strokeColor=#A8201A;fontStyle=1" edge="1" parent="WIyWlLk6GJQsqaUBKTNV-1" source="q5r-BAAe32Tt8XjZLQv0-62" target="EdTaeyGL8FUxiMYROmDw-47">
          <mxGeometry relative="1" as="geometry" />
        </mxCell>
        <mxCell id="EdTaeyGL8FUxiMYROmDw-126" style="edgeStyle=orthogonalEdgeStyle;orthogonalLoop=1;jettySize=auto;html=1;exitX=0;exitY=0.5;exitDx=0;exitDy=0;entryX=0.5;entryY=1;entryDx=0;entryDy=0;labelBackgroundColor=none;fontColor=default;strokeColor=#A8201A;fontStyle=1" edge="1" parent="WIyWlLk6GJQsqaUBKTNV-1" source="q5r-BAAe32Tt8XjZLQv0-62" target="EdTaeyGL8FUxiMYROmDw-53">
          <mxGeometry relative="1" as="geometry" />
        </mxCell>
        <mxCell id="EdTaeyGL8FUxiMYROmDw-131" style="edgeStyle=orthogonalEdgeStyle;orthogonalLoop=1;jettySize=auto;html=1;exitX=0;exitY=0.5;exitDx=0;exitDy=0;entryX=0.5;entryY=1;entryDx=0;entryDy=0;labelBackgroundColor=none;fontColor=default;strokeColor=#A8201A;fontStyle=1" edge="1" parent="WIyWlLk6GJQsqaUBKTNV-1" source="EdTaeyGL8FUxiMYROmDw-12" target="EdTaeyGL8FUxiMYROmDw-83">
          <mxGeometry relative="1" as="geometry" />
        </mxCell>
        <mxCell id="EdTaeyGL8FUxiMYROmDw-133" value="SP" style="text;html=1;strokeColor=none;fillColor=none;align=center;verticalAlign=middle;whiteSpace=wrap;rounded=0;labelBackgroundColor=none;fontColor=#143642;fontStyle=1" vertex="1" parent="WIyWlLk6GJQsqaUBKTNV-1">
          <mxGeometry x="169.04999999999995" y="-1669.75" width="60" height="30" as="geometry" />
        </mxCell>
        <mxCell id="EdTaeyGL8FUxiMYROmDw-134" value="1000" style="text;html=1;strokeColor=none;fillColor=none;align=center;verticalAlign=middle;whiteSpace=wrap;rounded=0;labelBackgroundColor=none;fontColor=#143642;fontStyle=1" vertex="1" parent="WIyWlLk6GJQsqaUBKTNV-1">
          <mxGeometry x="229.04999999999995" y="-1669.75" width="60" height="30" as="geometry" />
        </mxCell>
        <mxCell id="EdTaeyGL8FUxiMYROmDw-135" value="SP" style="text;html=1;strokeColor=none;fillColor=none;align=center;verticalAlign=middle;whiteSpace=wrap;rounded=0;labelBackgroundColor=none;fontColor=#143642;fontStyle=1" vertex="1" parent="WIyWlLk6GJQsqaUBKTNV-1">
          <mxGeometry x="-90.31999999999994" y="-1667.5" width="60" height="30" as="geometry" />
        </mxCell>
        <mxCell id="EdTaeyGL8FUxiMYROmDw-136" value="20" style="text;html=1;strokeColor=none;fillColor=none;align=center;verticalAlign=middle;whiteSpace=wrap;rounded=0;labelBackgroundColor=none;fontColor=#143642;fontStyle=1" vertex="1" parent="WIyWlLk6GJQsqaUBKTNV-1">
          <mxGeometry x="-30.319999999999936" y="-1667.5" width="60" height="30" as="geometry" />
        </mxCell>
        <mxCell id="EdTaeyGL8FUxiMYROmDw-145" value="SP" style="text;html=1;strokeColor=none;fillColor=none;align=center;verticalAlign=middle;whiteSpace=wrap;rounded=0;labelBackgroundColor=none;fontColor=#143642;fontStyle=1" vertex="1" parent="WIyWlLk6GJQsqaUBKTNV-1">
          <mxGeometry x="-388.25" y="-1667.5" width="60" height="30" as="geometry" />
        </mxCell>
        <mxCell id="EdTaeyGL8FUxiMYROmDw-146" value="16" style="text;html=1;strokeColor=none;fillColor=none;align=center;verticalAlign=middle;whiteSpace=wrap;rounded=0;labelBackgroundColor=none;fontColor=#143642;fontStyle=1" vertex="1" parent="WIyWlLk6GJQsqaUBKTNV-1">
          <mxGeometry x="-311.75" y="-1667.5" width="60" height="30" as="geometry" />
        </mxCell>
        <mxCell id="EdTaeyGL8FUxiMYROmDw-147" value="SP" style="text;html=1;strokeColor=none;fillColor=none;align=center;verticalAlign=middle;whiteSpace=wrap;rounded=0;labelBackgroundColor=none;fontColor=#143642;fontStyle=1" vertex="1" parent="WIyWlLk6GJQsqaUBKTNV-1">
          <mxGeometry x="-690" y="-1667.5" width="60" height="30" as="geometry" />
        </mxCell>
        <mxCell id="EdTaeyGL8FUxiMYROmDw-148" value="10" style="text;html=1;strokeColor=none;fillColor=none;align=center;verticalAlign=middle;whiteSpace=wrap;rounded=0;labelBackgroundColor=none;fontColor=#143642;fontStyle=1" vertex="1" parent="WIyWlLk6GJQsqaUBKTNV-1">
          <mxGeometry x="-630" y="-1667.5" width="60" height="30" as="geometry" />
        </mxCell>
        <mxCell id="EdTaeyGL8FUxiMYROmDw-153" style="edgeStyle=orthogonalEdgeStyle;orthogonalLoop=1;jettySize=auto;html=1;exitX=1;exitY=0.5;exitDx=0;exitDy=0;entryX=0;entryY=0.5;entryDx=0;entryDy=0;labelBackgroundColor=none;fontColor=default;strokeColor=#A8201A;fontStyle=1" edge="1" parent="WIyWlLk6GJQsqaUBKTNV-1" target="q5r-BAAe32Tt8XjZLQv0-13">
          <mxGeometry relative="1" as="geometry">
            <mxPoint x="-97.5" y="-895" as="sourcePoint" />
            <mxPoint x="29.5" y="-1087" as="targetPoint" />
            <Array as="points">
              <mxPoint x="-98" y="-1092" />
            </Array>
          </mxGeometry>
        </mxCell>
        <mxCell id="EdTaeyGL8FUxiMYROmDw-154" style="edgeStyle=orthogonalEdgeStyle;orthogonalLoop=1;jettySize=auto;html=1;exitX=1;exitY=0.5;exitDx=0;exitDy=0;labelBackgroundColor=none;fontColor=default;strokeColor=#A8201A;fontStyle=1" edge="1" parent="WIyWlLk6GJQsqaUBKTNV-1" target="EdTaeyGL8FUxiMYROmDw-26">
          <mxGeometry relative="1" as="geometry">
            <mxPoint x="-97.5" y="-895" as="sourcePoint" />
            <mxPoint x="29.5" y="-877" as="targetPoint" />
          </mxGeometry>
        </mxCell>
        <mxCell id="EdTaeyGL8FUxiMYROmDw-155" value="Destination" style="text;html=1;strokeColor=none;fillColor=none;align=center;verticalAlign=middle;whiteSpace=wrap;rounded=0;labelBackgroundColor=none;fontColor=#143642;fontStyle=1" vertex="1" parent="WIyWlLk6GJQsqaUBKTNV-1">
          <mxGeometry x="-10" y="-912.12" width="60" height="30" as="geometry" />
        </mxCell>
        <mxCell id="EdTaeyGL8FUxiMYROmDw-156" value="Source" style="text;html=1;strokeColor=none;fillColor=none;align=center;verticalAlign=middle;whiteSpace=wrap;rounded=0;labelBackgroundColor=none;fontColor=#143642;fontStyle=1" vertex="1" parent="WIyWlLk6GJQsqaUBKTNV-1">
          <mxGeometry x="-19" y="-1115" width="60" height="30" as="geometry" />
        </mxCell>
        <mxCell id="EdTaeyGL8FUxiMYROmDw-166" style="edgeStyle=orthogonalEdgeStyle;orthogonalLoop=1;jettySize=auto;html=1;exitX=0;exitY=0.5;exitDx=0;exitDy=0;entryX=1;entryY=0.5;entryDx=0;entryDy=0;labelBackgroundColor=none;fontColor=default;strokeColor=#A8201A;fontStyle=1" edge="1" parent="WIyWlLk6GJQsqaUBKTNV-1" source="EdTaeyGL8FUxiMYROmDw-16" target="q5r-BAAe32Tt8XjZLQv0-13">
          <mxGeometry relative="1" as="geometry">
            <Array as="points">
              <mxPoint x="310" y="-565" />
              <mxPoint x="310" y="-1092" />
            </Array>
          </mxGeometry>
        </mxCell>
        <mxCell id="EdTaeyGL8FUxiMYROmDw-167" style="edgeStyle=orthogonalEdgeStyle;orthogonalLoop=1;jettySize=auto;html=1;exitX=0;exitY=0.5;exitDx=0;exitDy=0;entryX=0.998;entryY=0.204;entryDx=0;entryDy=0;entryPerimeter=0;labelBackgroundColor=none;fontColor=default;strokeColor=#A8201A;fontStyle=1" edge="1" parent="WIyWlLk6GJQsqaUBKTNV-1" source="EdTaeyGL8FUxiMYROmDw-16" target="EdTaeyGL8FUxiMYROmDw-26">
          <mxGeometry relative="1" as="geometry">
            <Array as="points">
              <mxPoint x="310" y="-565" />
              <mxPoint x="310" y="-916" />
            </Array>
          </mxGeometry>
        </mxCell>
        <mxCell id="EdTaeyGL8FUxiMYROmDw-168" style="edgeStyle=orthogonalEdgeStyle;orthogonalLoop=1;jettySize=auto;html=1;exitX=0;exitY=0.5;exitDx=0;exitDy=0;entryX=0.5;entryY=1;entryDx=0;entryDy=0;labelBackgroundColor=none;fontColor=default;strokeColor=#A8201A;fontStyle=1" edge="1" parent="WIyWlLk6GJQsqaUBKTNV-1" source="EdTaeyGL8FUxiMYROmDw-16" target="EdTaeyGL8FUxiMYROmDw-77">
          <mxGeometry relative="1" as="geometry" />
        </mxCell>
        <mxCell id="EdTaeyGL8FUxiMYROmDw-169" style="edgeStyle=orthogonalEdgeStyle;orthogonalLoop=1;jettySize=auto;html=1;exitX=0;exitY=0.5;exitDx=0;exitDy=0;entryX=0.5;entryY=1;entryDx=0;entryDy=0;labelBackgroundColor=none;fontColor=default;strokeColor=#A8201A;fontStyle=1" edge="1" parent="WIyWlLk6GJQsqaUBKTNV-1" source="EdTaeyGL8FUxiMYROmDw-16" target="EdTaeyGL8FUxiMYROmDw-41">
          <mxGeometry relative="1" as="geometry" />
        </mxCell>
        <mxCell id="EdTaeyGL8FUxiMYROmDw-170" value="Destination" style="text;html=1;strokeColor=none;fillColor=none;align=center;verticalAlign=middle;whiteSpace=wrap;rounded=0;labelBackgroundColor=none;fontColor=#143642;fontStyle=1" vertex="1" parent="WIyWlLk6GJQsqaUBKTNV-1">
          <mxGeometry x="310" y="-920" width="60" height="30" as="geometry" />
        </mxCell>
        <mxCell id="EdTaeyGL8FUxiMYROmDw-171" value="Source" style="text;html=1;strokeColor=none;fillColor=none;align=center;verticalAlign=middle;whiteSpace=wrap;rounded=0;labelBackgroundColor=none;fontColor=#143642;fontStyle=1" vertex="1" parent="WIyWlLk6GJQsqaUBKTNV-1">
          <mxGeometry x="300" y="-1145" width="60" height="30" as="geometry" />
        </mxCell>
        <mxCell id="EdTaeyGL8FUxiMYROmDw-172" value="12" style="text;html=1;strokeColor=none;fillColor=none;align=center;verticalAlign=middle;whiteSpace=wrap;rounded=0;labelBackgroundColor=none;fontColor=#143642;fontStyle=1" vertex="1" parent="WIyWlLk6GJQsqaUBKTNV-1">
          <mxGeometry x="80" y="-692" width="60" height="30" as="geometry" />
        </mxCell>
        <mxCell id="EdTaeyGL8FUxiMYROmDw-173" value="SP" style="text;html=1;strokeColor=none;fillColor=none;align=center;verticalAlign=middle;whiteSpace=wrap;rounded=0;labelBackgroundColor=none;fontColor=#143642;fontStyle=1" vertex="1" parent="WIyWlLk6GJQsqaUBKTNV-1">
          <mxGeometry x="20" y="-694.25" width="60" height="30" as="geometry" />
        </mxCell>
        <mxCell id="EdTaeyGL8FUxiMYROmDw-174" value="20" style="text;html=1;strokeColor=none;fillColor=none;align=center;verticalAlign=middle;whiteSpace=wrap;rounded=0;labelBackgroundColor=none;fontColor=#143642;fontStyle=1" vertex="1" parent="WIyWlLk6GJQsqaUBKTNV-1">
          <mxGeometry x="-460" y="-694.25" width="60" height="30" as="geometry" />
        </mxCell>
        <mxCell id="EdTaeyGL8FUxiMYROmDw-175" value="SP" style="text;html=1;strokeColor=none;fillColor=none;align=center;verticalAlign=middle;whiteSpace=wrap;rounded=0;labelBackgroundColor=none;fontColor=#143642;fontStyle=1" vertex="1" parent="WIyWlLk6GJQsqaUBKTNV-1">
          <mxGeometry x="-520" y="-696.5" width="60" height="30" as="geometry" />
        </mxCell>
        <mxCell id="EdTaeyGL8FUxiMYROmDw-183" style="edgeStyle=orthogonalEdgeStyle;orthogonalLoop=1;jettySize=auto;html=1;exitX=0;exitY=0.5;exitDx=0;exitDy=0;entryX=0.493;entryY=1.028;entryDx=0;entryDy=0;entryPerimeter=0;labelBackgroundColor=none;fontColor=default;strokeColor=#A8201A;fontStyle=1" edge="1" parent="WIyWlLk6GJQsqaUBKTNV-1" source="EdTaeyGL8FUxiMYROmDw-6" target="q5r-BAAe32Tt8XjZLQv0-23">
          <mxGeometry relative="1" as="geometry">
            <Array as="points">
              <mxPoint x="490" y="-1240" />
              <mxPoint x="278" y="-1240" />
              <mxPoint x="278" y="-1260" />
              <mxPoint x="-195" y="-1260" />
            </Array>
          </mxGeometry>
        </mxCell>
        <mxCell id="EdTaeyGL8FUxiMYROmDw-185" style="edgeStyle=orthogonalEdgeStyle;orthogonalLoop=1;jettySize=auto;html=1;exitX=0;exitY=0.5;exitDx=0;exitDy=0;entryX=1;entryY=0.5;entryDx=0;entryDy=0;labelBackgroundColor=none;fontColor=default;strokeColor=#A8201A;fontStyle=1" edge="1" parent="WIyWlLk6GJQsqaUBKTNV-1" source="EdTaeyGL8FUxiMYROmDw-6" target="EdTaeyGL8FUxiMYROmDw-35">
          <mxGeometry relative="1" as="geometry">
            <Array as="points">
              <mxPoint x="490" y="-1190" />
              <mxPoint x="250" y="-1190" />
              <mxPoint x="250" y="-1240" />
              <mxPoint x="-500" y="-1240" />
              <mxPoint x="-500" y="-1309" />
            </Array>
          </mxGeometry>
        </mxCell>
        <mxCell id="EdTaeyGL8FUxiMYROmDw-186" value="holds" style="text;html=1;strokeColor=none;fillColor=none;align=center;verticalAlign=middle;whiteSpace=wrap;rounded=0;labelBackgroundColor=none;fontColor=#143642;fontStyle=1" vertex="1" parent="WIyWlLk6GJQsqaUBKTNV-1">
          <mxGeometry x="279.37" y="-1270" width="60" height="30" as="geometry" />
        </mxCell>
        <mxCell id="EdTaeyGL8FUxiMYROmDw-187" value="holds" style="text;html=1;strokeColor=none;fillColor=none;align=center;verticalAlign=middle;whiteSpace=wrap;rounded=0;labelBackgroundColor=none;fontColor=#143642;fontStyle=1" vertex="1" parent="WIyWlLk6GJQsqaUBKTNV-1">
          <mxGeometry x="250" y="-1222" width="60" height="30" as="geometry" />
        </mxCell>
        <mxCell id="EdTaeyGL8FUxiMYROmDw-194" value="reads" style="text;html=1;strokeColor=none;fillColor=none;align=center;verticalAlign=middle;whiteSpace=wrap;rounded=0;labelBackgroundColor=none;fontColor=#143642;fontStyle=1" vertex="1" parent="WIyWlLk6GJQsqaUBKTNV-1">
          <mxGeometry x="360" y="-1430" width="60" height="30" as="geometry" />
        </mxCell>
        <mxCell id="EdTaeyGL8FUxiMYROmDw-196" value="holds" style="text;html=1;strokeColor=none;fillColor=none;align=center;verticalAlign=middle;whiteSpace=wrap;rounded=0;labelBackgroundColor=none;fontColor=#143642;fontStyle=1" vertex="1" parent="WIyWlLk6GJQsqaUBKTNV-1">
          <mxGeometry x="474" y="-630" width="60" height="30" as="geometry" />
        </mxCell>
        <mxCell id="EdTaeyGL8FUxiMYROmDw-197" value="holds" style="text;html=1;strokeColor=none;fillColor=none;align=center;verticalAlign=middle;whiteSpace=wrap;rounded=0;labelBackgroundColor=none;fontColor=#143642;fontStyle=1" vertex="1" parent="WIyWlLk6GJQsqaUBKTNV-1">
          <mxGeometry x="600" y="-1390" width="60" height="30" as="geometry" />
        </mxCell>
        <mxCell id="EdTaeyGL8FUxiMYROmDw-206" style="edgeStyle=orthogonalEdgeStyle;rounded=0;orthogonalLoop=1;jettySize=auto;html=1;exitX=0.5;exitY=1;exitDx=0;exitDy=0;labelBackgroundColor=none;strokeColor=#A8201A;fontColor=default;fontStyle=1" edge="1" parent="WIyWlLk6GJQsqaUBKTNV-1" source="EdTaeyGL8FUxiMYROmDw-198" target="q5r-BAAe32Tt8XjZLQv0-60">
          <mxGeometry relative="1" as="geometry" />
        </mxCell>
        <mxCell id="EdTaeyGL8FUxiMYROmDw-198" value="11: Shippment" style="swimlane;fontStyle=1;align=center;verticalAlign=top;childLayout=stackLayout;horizontal=1;startSize=26;horizontalStack=0;resizeParent=1;resizeLast=0;collapsible=1;marginBottom=0;rounded=0;shadow=0;strokeWidth=1;labelBackgroundColor=none;fontSize=13;fillColor=#FAE5C7;strokeColor=#0F8B8D;fontColor=#143642;" vertex="1" parent="WIyWlLk6GJQsqaUBKTNV-1">
          <mxGeometry x="390" y="-1930" width="220" height="220" as="geometry">
            <mxRectangle x="130" y="380" width="160" height="26" as="alternateBounds" />
          </mxGeometry>
        </mxCell>
        <mxCell id="EdTaeyGL8FUxiMYROmDw-199" value="- truckSerialNumber : -" style="text;align=left;verticalAlign=top;spacingLeft=4;spacingRight=4;overflow=hidden;rotatable=0;points=[[0,0.5],[1,0.5]];portConstraint=eastwest;labelBackgroundColor=none;rounded=0;fontStyle=1;fontSize=13;horizontal=1;fontColor=#143642;" vertex="1" parent="EdTaeyGL8FUxiMYROmDw-198">
          <mxGeometry y="26" width="220" height="26" as="geometry" />
        </mxCell>
        <mxCell id="EdTaeyGL8FUxiMYROmDw-200" value="- date : -" style="text;align=left;verticalAlign=top;spacingLeft=4;spacingRight=4;overflow=hidden;rotatable=0;points=[[0,0.5],[1,0.5]];portConstraint=eastwest;labelBackgroundColor=none;rounded=0;fontStyle=1;fontSize=13;horizontal=1;fontColor=#143642;" vertex="1" parent="EdTaeyGL8FUxiMYROmDw-198">
          <mxGeometry y="52" width="220" height="26" as="geometry" />
        </mxCell>
        <mxCell id="EdTaeyGL8FUxiMYROmDw-201" value="- departureHour : -" style="text;align=left;verticalAlign=top;spacingLeft=4;spacingRight=4;overflow=hidden;rotatable=0;points=[[0,0.5],[1,0.5]];portConstraint=eastwest;labelBackgroundColor=none;rounded=0;fontStyle=1;fontSize=13;horizontal=1;fontColor=#143642;" vertex="1" parent="EdTaeyGL8FUxiMYROmDw-198">
          <mxGeometry y="78" width="220" height="30" as="geometry" />
        </mxCell>
        <mxCell id="EdTaeyGL8FUxiMYROmDw-202" value="- driverId : -" style="text;align=left;verticalAlign=top;spacingLeft=4;spacingRight=4;overflow=hidden;rotatable=0;points=[[0,0.5],[1,0.5]];portConstraint=eastwest;labelBackgroundColor=none;rounded=0;fontStyle=1;fontSize=13;horizontal=1;fontColor=#143642;" vertex="1" parent="EdTaeyGL8FUxiMYROmDw-198">
          <mxGeometry y="108" width="220" height="26" as="geometry" />
        </mxCell>
        <mxCell id="EdTaeyGL8FUxiMYROmDw-203" value="Â - shipmentNum: 11&#xa;" style="text;labelBackgroundColor=none;rounded=0;fontStyle=1;fontSize=13;horizontal=1;fontColor=#143642;" vertex="1" parent="EdTaeyGL8FUxiMYROmDw-198">
          <mxGeometry y="134" width="220" height="26" as="geometry" />
        </mxCell>
        <mxCell id="EdTaeyGL8FUxiMYROmDw-204" value="Â - type : Normal" style="text;labelBackgroundColor=none;rounded=0;fontStyle=1;fontSize=13;horizontal=1;fontColor=#143642;" vertex="1" parent="EdTaeyGL8FUxiMYROmDw-198">
          <mxGeometry y="160" width="220" height="26" as="geometry" />
        </mxCell>
        <mxCell id="EdTaeyGL8FUxiMYROmDw-205" value="Â - driverName: -" style="text;labelBackgroundColor=none;rounded=0;fontStyle=1;fontSize=13;horizontal=1;fontColor=#143642;" vertex="1" parent="EdTaeyGL8FUxiMYROmDw-198">
          <mxGeometry y="186" width="220" height="26" as="geometry" />
        </mxCell>
        <mxCell id="EdTaeyGL8FUxiMYROmDw-207" style="edgeStyle=orthogonalEdgeStyle;rounded=0;orthogonalLoop=1;jettySize=auto;html=1;exitX=0.5;exitY=1;exitDx=0;exitDy=0;labelBackgroundColor=none;strokeColor=#A8201A;fontColor=default;fontStyle=1" edge="1" parent="WIyWlLk6GJQsqaUBKTNV-1" source="q5r-BAAe32Tt8XjZLQv0-34" target="EdTaeyGL8FUxiMYROmDw-198">
          <mxGeometry relative="1" as="geometry">
            <Array as="points">
              <mxPoint x="500" y="-2210" />
            </Array>
          </mxGeometry>
        </mxCell>
        <mxCell id="EdTaeyGL8FUxiMYROmDw-208" style="edgeStyle=orthogonalEdgeStyle;rounded=0;orthogonalLoop=1;jettySize=auto;html=1;exitX=0;exitY=0.5;exitDx=0;exitDy=0;labelBackgroundColor=none;strokeColor=#A8201A;fontColor=default;fontStyle=1" edge="1" parent="WIyWlLk6GJQsqaUBKTNV-1" source="q5r-BAAe32Tt8XjZLQv0-33" target="EdTaeyGL8FUxiMYROmDw-18">
          <mxGeometry relative="1" as="geometry" />
        </mxCell>
        <mxCell id="EdTaeyGL8FUxiMYROmDw-209" style="edgeStyle=orthogonalEdgeStyle;rounded=0;orthogonalLoop=1;jettySize=auto;html=1;exitX=0;exitY=0.5;exitDx=0;exitDy=0;entryX=0.5;entryY=0;entryDx=0;entryDy=0;labelBackgroundColor=none;strokeColor=#A8201A;fontColor=default;fontStyle=1" edge="1" parent="WIyWlLk6GJQsqaUBKTNV-1" source="q5r-BAAe32Tt8XjZLQv0-33" target="q5r-BAAe32Tt8XjZLQv0-5">
          <mxGeometry relative="1" as="geometry">
            <Array as="points">
              <mxPoint x="380" y="-2270" />
              <mxPoint x="380" y="-1990" />
            </Array>
          </mxGeometry>
        </mxCell>
        <mxCell id="EdTaeyGL8FUxiMYROmDw-210" style="edgeStyle=orthogonalEdgeStyle;rounded=0;orthogonalLoop=1;jettySize=auto;html=1;exitX=1;exitY=0.25;exitDx=0;exitDy=0;entryX=1;entryY=0.5;entryDx=0;entryDy=0;labelBackgroundColor=none;strokeColor=#A8201A;fontColor=default;fontStyle=1" edge="1" parent="WIyWlLk6GJQsqaUBKTNV-1" source="q5r-BAAe32Tt8XjZLQv0-33" target="q5r-BAAe32Tt8XjZLQv0-62">
          <mxGeometry relative="1" as="geometry" />
        </mxCell>
        <mxCell id="EdTaeyGL8FUxiMYROmDw-211" style="edgeStyle=orthogonalEdgeStyle;rounded=0;orthogonalLoop=1;jettySize=auto;html=1;exitX=1;exitY=0.25;exitDx=0;exitDy=0;entryX=1;entryY=0.5;entryDx=0;entryDy=0;labelBackgroundColor=none;strokeColor=#A8201A;fontColor=default;fontStyle=1" edge="1" parent="WIyWlLk6GJQsqaUBKTNV-1" source="q5r-BAAe32Tt8XjZLQv0-33" target="EdTaeyGL8FUxiMYROmDw-6">
          <mxGeometry relative="1" as="geometry" />
        </mxCell>
        <mxCell id="EdTaeyGL8FUxiMYROmDw-212" style="edgeStyle=orthogonalEdgeStyle;rounded=0;orthogonalLoop=1;jettySize=auto;html=1;exitX=1;exitY=0.5;exitDx=0;exitDy=0;entryX=1;entryY=0.5;entryDx=0;entryDy=0;labelBackgroundColor=none;strokeColor=#A8201A;fontColor=default;fontStyle=1" edge="1" parent="WIyWlLk6GJQsqaUBKTNV-1" source="q5r-BAAe32Tt8XjZLQv0-33" target="EdTaeyGL8FUxiMYROmDw-12">
          <mxGeometry relative="1" as="geometry" />
        </mxCell>
        <mxCell id="EdTaeyGL8FUxiMYROmDw-214" style="edgeStyle=orthogonalEdgeStyle;rounded=0;orthogonalLoop=1;jettySize=auto;html=1;exitX=0;exitY=0.5;exitDx=0;exitDy=0;entryX=0;entryY=0.5;entryDx=0;entryDy=0;labelBackgroundColor=none;strokeColor=#A8201A;fontColor=default;fontStyle=1" edge="1" parent="WIyWlLk6GJQsqaUBKTNV-1" source="q5r-BAAe32Tt8XjZLQv0-33" target="EdTaeyGL8FUxiMYROmDw-35">
          <mxGeometry relative="1" as="geometry">
            <Array as="points">
              <mxPoint x="-780" y="-2270" />
              <mxPoint x="-780" y="-1309" />
            </Array>
          </mxGeometry>
        </mxCell>
        <mxCell id="EdTaeyGL8FUxiMYROmDw-215" style="edgeStyle=orthogonalEdgeStyle;rounded=0;orthogonalLoop=1;jettySize=auto;html=1;exitX=0;exitY=0.5;exitDx=0;exitDy=0;entryX=0;entryY=0.5;entryDx=0;entryDy=0;labelBackgroundColor=none;strokeColor=#A8201A;fontColor=default;fontStyle=1" edge="1" parent="WIyWlLk6GJQsqaUBKTNV-1" source="q5r-BAAe32Tt8XjZLQv0-33" target="EdTaeyGL8FUxiMYROmDw-60">
          <mxGeometry relative="1" as="geometry">
            <Array as="points">
              <mxPoint x="-780" y="-2270" />
              <mxPoint x="-780" y="-1102" />
            </Array>
          </mxGeometry>
        </mxCell>
        <mxCell id="EdTaeyGL8FUxiMYROmDw-216" style="edgeStyle=orthogonalEdgeStyle;rounded=0;orthogonalLoop=1;jettySize=auto;html=1;exitX=0;exitY=0.5;exitDx=0;exitDy=0;labelBackgroundColor=none;strokeColor=#A8201A;fontColor=default;fontStyle=1" edge="1" parent="WIyWlLk6GJQsqaUBKTNV-1" source="q5r-BAAe32Tt8XjZLQv0-33" target="q5r-BAAe32Tt8XjZLQv0-20">
          <mxGeometry relative="1" as="geometry">
            <Array as="points">
              <mxPoint x="-770" y="-2270" />
              <mxPoint x="-770" y="-1440" />
              <mxPoint x="-194" y="-1440" />
            </Array>
          </mxGeometry>
        </mxCell>
        <mxCell id="EdTaeyGL8FUxiMYROmDw-218" style="edgeStyle=orthogonalEdgeStyle;rounded=0;orthogonalLoop=1;jettySize=auto;html=1;exitX=0;exitY=0.5;exitDx=0;exitDy=0;entryX=0.5;entryY=0;entryDx=0;entryDy=0;labelBackgroundColor=none;strokeColor=#A8201A;fontColor=default;fontStyle=1" edge="1" parent="WIyWlLk6GJQsqaUBKTNV-1" source="q5r-BAAe32Tt8XjZLQv0-33" target="q5r-BAAe32Tt8XjZLQv0-10">
          <mxGeometry relative="1" as="geometry">
            <Array as="points">
              <mxPoint x="-780" y="-2270" />
              <mxPoint x="-780" y="-1210" />
              <mxPoint x="175" y="-1210" />
            </Array>
          </mxGeometry>
        </mxCell>
        <mxCell id="EdTaeyGL8FUxiMYROmDw-219" style="edgeStyle=orthogonalEdgeStyle;rounded=0;orthogonalLoop=1;jettySize=auto;html=1;exitX=0;exitY=0.5;exitDx=0;exitDy=0;entryX=0.5;entryY=0;entryDx=0;entryDy=0;labelBackgroundColor=none;strokeColor=#A8201A;fontColor=default;fontStyle=1" edge="1" parent="WIyWlLk6GJQsqaUBKTNV-1" source="q5r-BAAe32Tt8XjZLQv0-33" target="EdTaeyGL8FUxiMYROmDw-23">
          <mxGeometry relative="1" as="geometry">
            <Array as="points">
              <mxPoint x="-780" y="-2270" />
              <mxPoint x="-780" y="-1010" />
              <mxPoint x="170" y="-1010" />
            </Array>
          </mxGeometry>
        </mxCell>
        <mxCell id="EdTaeyGL8FUxiMYROmDw-220" style="edgeStyle=orthogonalEdgeStyle;rounded=0;orthogonalLoop=1;jettySize=auto;html=1;exitX=1;exitY=0.25;exitDx=0;exitDy=0;labelBackgroundColor=none;strokeColor=#A8201A;fontColor=default;fontStyle=1" edge="1" parent="WIyWlLk6GJQsqaUBKTNV-1" source="q5r-BAAe32Tt8XjZLQv0-33" target="EdTaeyGL8FUxiMYROmDw-16">
          <mxGeometry relative="1" as="geometry">
            <Array as="points">
              <mxPoint x="730" y="-2280" />
              <mxPoint x="730" y="-630" />
            </Array>
          </mxGeometry>
        </mxCell>
        <mxCell id="EdTaeyGL8FUxiMYROmDw-221" value="holds" style="text;html=1;strokeColor=none;fillColor=none;align=center;verticalAlign=middle;whiteSpace=wrap;rounded=0;labelBackgroundColor=none;fontColor=#143642;fontStyle=1" vertex="1" parent="WIyWlLk6GJQsqaUBKTNV-1">
          <mxGeometry x="730" y="-1480" width="60" height="30" as="geometry" />
        </mxCell>
        <mxCell id="EdTaeyGL8FUxiMYROmDw-222" value="holds" style="text;html=1;strokeColor=none;fillColor=none;align=center;verticalAlign=middle;whiteSpace=wrap;rounded=0;labelBackgroundColor=none;fontColor=#143642;fontStyle=1" vertex="1" parent="WIyWlLk6GJQsqaUBKTNV-1">
          <mxGeometry x="-780" y="-2240" width="60" height="30" as="geometry" />
        </mxCell>
        <mxCell id="EdTaeyGL8FUxiMYROmDw-224" value="reads" style="text;html=1;strokeColor=none;fillColor=none;align=center;verticalAlign=middle;whiteSpace=wrap;rounded=0;labelBackgroundColor=none;fontColor=#143642;fontStyle=1" vertex="1" parent="WIyWlLk6GJQsqaUBKTNV-1">
          <mxGeometry x="390" y="-570" width="60" height="30" as="geometry" />
        </mxCell>
      </root>
    </mxGraphModel>
  </diagram>
</mxfile>
